<?xml version="1.0" encoding="UTF-8"?>
<!-- Generated by Pixelmator Pro 3.4.2 -->
<svg width="660" height="641" viewBox="0 0 660 641" xmlns="http://www.w3.org/2000/svg">
    <g id="g8">
        <g id="g10">
            <path id="path12" fill="#16aaea" stroke="none" d="M 583.096008 173.612 C 582.3573 173.200012 581.174683 172.993347 579.550659 172.993347 L 577.050659 172.993347 L 577.050659 179.012024 L 579.694641 179.012024 C 580.935974 179.012024 581.866638 178.888 582.487976 178.640015 C 583.631958 178.186646 584.202637 177.32135 584.202637 176.042664 C 584.202637 174.834656 583.834656 174.023987 583.096008 173.612 Z M 579.935974 170.993347 C 581.997314 170.993347 583.507996 171.193359 584.469299 171.590637 C 586.186646 172.306702 587.046692 173.710693 587.046692 175.801331 C 587.046692 177.286682 586.506653 178.378662 585.425293 179.08136 C 584.850647 179.451965 584.050659 179.721313 583.023987 179.885315 C 584.322632 180.09198 585.274658 180.634644 585.874634 181.512024 C 586.476013 182.391968 586.778687 183.249329 586.778687 184.085327 L 586.778687 185.301331 C 586.778687 185.68396 586.791992 186.096008 586.819946 186.536011 C 586.84668 186.973328 586.894653 187.262695 586.963989 187.400024 L 587.06665 187.606689 L 584.32666 187.606689 L 584.283997 187.441345 L 584.242676 187.257324 L 584.181335 186.723999 L 584.181335 185.40802 C 584.181335 183.490662 583.659973 182.223999 582.614685 181.606689 C 581.997314 181.250671 580.910645 181.072021 579.358643 181.072021 L 577.050659 181.072021 L 577.050659 187.606689 L 574.12262 187.606689 L 574.12262 170.993347 Z M 571.031982 170.14801 C 568.503967 172.690674 567.238647 175.761353 567.238647 179.361328 C 567.238647 182.989319 568.497314 186.08136 571.010681 188.637329 C 573.539978 191.192017 576.610657 192.470703 580.225342 192.470703 C 583.837341 192.470703 586.90802 191.192017 589.437317 188.637329 C 591.965332 186.08136 593.22937 182.989319 593.22937 179.361328 C 593.22937 175.761353 591.965332 172.690674 589.437317 170.14801 C 586.894653 167.593323 583.823975 166.314697 580.225342 166.314697 C 576.637329 166.314697 573.573303 167.593323 571.031982 170.14801 Z M 590.942627 190.080017 C 587.987976 193.048035 584.414673 194.53064 580.225342 194.53064 C 576.033325 194.53064 572.466675 193.048035 569.526672 190.080017 C 566.599976 187.125305 565.137329 183.545349 565.137329 179.34137 C 565.137329 175.178711 566.614685 171.618652 569.567993 168.665344 C 572.507996 165.723999 576.059998 164.254639 580.225342 164.254639 C 584.414673 164.254639 587.987976 165.723999 590.942627 168.665344 C 593.895996 171.605347 595.373291 175.164001 595.373291 179.34137 C 595.373291 183.531982 593.895996 187.112 590.942627 190.080017"/>
            <path id="path14" fill="#16aaea" stroke="none" d="M 441.323975 511.445313 C 436.223999 511.445313 431.088013 509.418823 426.823975 505.729248 L 425.835999 504.825439 C 427.343994 501.61615 428.228027 497.573486 428.228027 492.519775 L 428.228027 472.536011 C 439.721313 471.018799 450.783997 468.319702 461.270691 464.574585 L 461.270691 493.407837 C 461.270691 503.37085 452.338684 511.445313 441.323975 511.445313 M 510.590637 435.694824 C 536.282715 413.0625 552.980042 382.124023 555.374634 347.669373 C 565.463989 328.977356 571.058655 307.697327 571.058655 285.125305 C 571.058655 247.263977 555.313354 213.045349 529.015991 188.546692 C 577.06665 210.947998 609.926697 256.262634 609.926697 308.52002 C 609.926697 367.218689 568.466675 417.150513 510.590637 435.694824"/>
            <path id="path16" fill="#fbe205" stroke="none" d="M 407.007996 516.083862 L 407.007996 487.609375 L 425.835999 504.825439 C 422.075989 512.829224 414.446655 515.655762 407.007996 516.083862 M 58.518799 279.099976 C 61.7052 207.393311 121.577057 150.230652 201.730682 150.230652 L 427.709351 150.230652 C 468.229309 150.230652 503.564026 164.835999 529.015991 188.546692 C 508.56134 179.010681 485.354675 173.627991 460.755981 173.627991 L 246.430664 173.627991 C 205.941345 173.627991 169.218811 188.214661 142.341217 211.893311 C 105.707855 223.633362 75.646942 247.949341 58.518799 279.099976"/>
            <path id="path18" fill="#029d4d" stroke="none" d="M 425.835999 504.825439 L 407.007996 487.609375 L 407.007996 473.95575 C 407.042664 473.95575 407.075989 473.95575 407.109375 473.95575 C 407.125305 473.95575 407.1427 473.95575 407.157349 473.95575 C 407.171997 473.95575 407.186646 473.95575 407.202698 473.954712 C 414.340027 473.925476 421.361328 473.442688 428.228027 472.536011 L 428.228027 492.519775 C 428.228027 497.573486 427.343994 501.61615 425.835999 504.825439 M 555.374634 347.669373 C 555.570679 344.854675 555.670654 342.02002 555.671997 339.161316 C 555.671997 339.132019 555.671997 339.104004 555.671997 339.074707 L 555.671997 339.074707 L 555.671997 339.074707 C 555.671997 264.574646 488.885315 204.182678 406.497314 204.182678 L 192.175995 204.182678 L 192.175995 204.182678 C 192.138672 204.182678 192.101349 204.182678 192.063995 204.182678 C 192.049347 204.182678 192.038666 204.182678 192.024017 204.182678 C 192 204.182678 191.975983 204.182678 191.951996 204.182678 C 191.937347 204.182678 191.921356 204.182678 191.905334 204.182678 C 191.884003 204.182678 191.862671 204.182678 191.839996 204.182678 C 191.820007 204.182678 191.809326 204.182678 191.789337 204.182678 C 191.769348 204.182678 191.749329 204.182678 191.72934 204.182678 C 191.713348 204.182678 191.691986 204.182678 191.675995 204.182678 C 191.658661 204.182678 191.640015 204.182678 191.621338 204.182678 C 191.506683 204.18396 191.38266 204.18396 191.266663 204.185303 C 191.26001 204.185303 191.254669 204.185303 191.249329 204.185303 C 191.213348 204.185303 191.190674 204.185303 191.156006 204.185303 C 191.153351 204.185303 191.152008 204.185303 191.149323 204.185303 C 174.040131 204.290649 157.621857 206.997314 142.341217 211.893311 C 169.218811 188.214661 205.941345 173.627991 246.430664 173.627991 L 460.755981 173.627991 C 485.354675 173.627991 508.56134 179.010681 529.015991 188.546692 C 555.313354 213.045349 571.058655 247.263977 571.058655 285.125305 C 571.058655 307.697327 565.463989 328.977356 555.374634 347.669373"/>
            <path id="path20" fill="#ed118d" stroke="none" d="M 387.067993 542 C 381.96936 542 377.184021 540.067749 372.56665 536.28125 L 304.422668 473.96936 L 192.175995 473.96936 C 109.791748 473.96936 43 413.580322 43 339.074707 C 43 317.530701 48.585938 297.165344 58.518799 279.100037 C 58.430267 281.097351 58.385468 283.106689 58.385468 285.125366 C 58.385468 342.589355 94.997864 391.658691 149.546936 411.097351 C 175.612 431.246948 209.452026 443.417236 246.430664 443.417236 L 331.140015 443.417236 L 383.609375 504.559875 C 394.013367 516.143738 399.809326 516.143738 404.90802 516.143738 C 405.604004 516.143738 406.305359 516.124023 407.007996 516.083862 L 407.007996 523.961487 C 407.007996 533.92395 398.08136 542 387.067993 542"/>
            <path id="path22" fill="#232d5f" stroke="none" d="M 331.140015 443.417236 L 246.430664 443.417236 C 209.452026 443.417236 175.612 431.246948 149.546936 411.097351 C 165.436401 416.759888 182.84668 419.907837 201.318665 420.017212 C 201.318665 420.017212 201.32135 420.017212 201.322662 420.017212 C 201.353333 420.017212 201.38266 420.017212 201.411987 420.017212 C 201.422668 420.017212 201.430664 420.017212 201.441345 420.017212 C 201.466675 420.017212 201.494659 420.017212 201.52002 420.017212 C 201.533325 420.017212 201.544006 420.018799 201.558655 420.018799 C 201.582672 420.018799 201.604004 420.018799 201.629333 420.018799 C 201.645325 420.018799 201.660004 420.018799 201.675995 420.018799 C 201.696014 420.018799 201.720001 420.018799 201.740021 420.018799 C 201.757355 420.018799 201.777344 420.018799 201.794678 420.018799 C 201.809326 420.018799 201.838684 420.018799 201.854675 420.018799 C 201.874664 420.018799 201.891998 420.018799 201.91333 420.018799 C 201.93335 420.019775 201.949341 420.019775 201.96933 420.019775 C 201.989349 420.019775 202.009338 420.019775 202.029327 420.019775 C 202.049347 420.019775 202.063995 420.019775 202.085327 420.019775 C 202.108002 420.019775 202.130676 420.019775 202.153351 420.019775 C 202.167999 420.019775 202.18399 420.019775 202.200012 420.019775 C 202.237335 420.019775 202.276001 420.019775 202.314667 420.019775 L 311.062683 420.019775 L 331.140015 443.417236"/>
            <path id="path24" fill="#ee2325" stroke="none" d="M 404.90802 516.143738 C 399.809326 516.143738 394.013367 516.143738 383.609375 504.559875 L 331.140015 443.417236 L 358.678711 443.417236 L 407.007996 487.610413 L 407.007996 516.083862 C 406.305359 516.124023 405.604004 516.143738 404.90802 516.143738 M 149.546936 411.097351 C 94.997864 391.658691 58.385468 342.589355 58.385468 285.125305 C 58.385468 283.106689 58.430267 281.097351 58.518799 279.099976 C 75.646942 247.949341 105.707855 223.633362 142.341217 211.893311 C 115.152679 235.845337 98.037994 269.094666 97.283325 305.96936 C 97.283325 305.971985 97.283325 305.973328 97.283325 305.976013 C 97.282257 306.012024 97.281738 306.042664 97.281189 306.080017 C 97.281189 306.08136 97.281189 306.083984 97.281189 306.08667 C 97.280273 306.122681 97.279724 306.15332 97.279205 306.189331 C 97.279205 306.192017 97.279205 306.194641 97.279205 306.197327 C 97.278137 306.233337 97.277588 306.262695 97.277069 306.298645 C 97.277069 306.302673 97.277069 306.304016 97.27652 306.308044 C 97.276001 306.340027 97.275482 306.372009 97.275055 306.403992 C 97.275055 306.410645 97.275055 306.414673 97.275055 306.421326 C 97.274536 306.453369 97.273987 306.482666 97.273468 306.514648 C 97.273468 306.521362 97.273468 306.523987 97.272919 306.531982 C 97.2724 306.562683 97.2724 306.59198 97.271332 306.624023 C 97.271332 306.630676 97.271332 306.634705 97.271332 306.641357 C 97.270813 306.67334 97.270264 306.701355 97.269745 306.733337 C 97.269745 306.73999 97.269745 306.745361 97.269745 306.753357 C 97.269318 306.783997 97.268799 306.808044 97.268799 306.838684 C 97.26828 306.848022 97.26828 306.856018 97.26828 306.865356 C 97.267731 306.895996 97.267731 306.917358 97.267212 306.949341 C 97.267212 306.958679 97.267212 306.965332 97.266663 306.97467 C 97.266144 307.002686 97.266144 307.030701 97.265594 307.057373 C 97.265594 307.06665 97.265594 307.075989 97.265594 307.085327 C 97.265076 307.113342 97.265076 307.138672 97.264526 307.166687 C 97.264526 307.176025 97.264526 307.187988 97.264008 307.195984 C 97.264008 307.223999 97.263611 307.247986 97.263611 307.274658 C 97.263611 307.286682 97.263062 307.294678 97.263062 307.306702 C 97.263062 307.334656 97.262543 307.358643 97.262543 307.385315 C 97.262543 307.397339 97.261993 307.405334 97.261993 307.417358 C 97.261993 307.444031 97.261993 307.466675 97.261475 307.493347 C 97.261475 307.505371 97.261475 307.515991 97.261475 307.528015 C 97.260925 307.554688 97.260925 307.575989 97.260406 307.602661 C 97.260406 307.614685 97.260406 307.626648 97.260406 307.638672 C 97.259857 307.665344 97.259857 307.682678 97.259857 307.709351 C 97.259857 307.723999 97.259857 307.73468 97.259338 307.749329 C 97.259338 307.776001 97.259338 307.791992 97.259338 307.820007 C 97.258789 307.833313 97.258789 307.845337 97.258789 307.858643 C 97.258789 307.88269 97.258789 307.905334 97.258789 307.927979 C 97.258392 307.942688 97.258392 307.955994 97.258392 307.96936 C 97.258392 307.992004 97.258392 308.015991 97.258392 308.038696 C 97.258392 308.052002 97.257874 308.06665 97.257874 308.080017 C 97.257874 308.102661 97.257874 308.125305 97.257874 308.14801 C 97.257874 308.161316 97.257874 308.176025 97.257874 308.190674 C 97.257874 308.213318 97.257324 308.237366 97.257324 308.26001 C 97.257324 308.274658 97.257324 308.286682 97.257324 308.299988 C 97.257324 308.322693 97.257324 308.353333 97.257324 308.375977 C 97.257324 308.388 97.257324 308.398682 97.257324 308.410645 C 97.257324 308.446655 97.257324 308.484009 97.257324 308.52002 L 97.257324 308.52002 L 97.257324 308.52002 L 97.257324 308.52002 C 97.257324 308.557373 97.257324 308.598694 97.257324 308.634705 C 97.257324 308.64801 97.257324 308.661316 97.257324 308.67334 C 97.257324 308.701355 97.257324 308.723999 97.257324 308.750671 C 97.257324 308.763977 97.257324 308.781311 97.257324 308.793335 C 97.257874 308.815979 97.257874 308.842651 97.257874 308.865356 C 97.257874 308.881348 97.257874 308.898682 97.257874 308.91333 C 97.257874 308.936035 97.257874 308.958679 97.257874 308.981323 C 97.258392 308.998657 97.258392 309.012024 97.258392 309.029358 C 97.258392 309.052002 97.258392 309.073364 97.258392 309.096008 C 97.258789 309.110657 97.258789 309.130676 97.258789 309.145325 C 97.258789 309.16803 97.258789 309.190674 97.259338 309.213318 C 97.259338 309.229309 97.259338 309.244019 97.259338 309.258667 C 97.259338 309.286682 97.259857 309.304016 97.259857 309.332031 C 97.259857 309.34668 97.259857 309.359985 97.259857 309.375977 C 97.260406 309.402649 97.260406 309.426697 97.260406 309.454651 C 97.260925 309.466675 97.260925 309.476013 97.260925 309.489319 C 97.261475 309.52002 97.261475 309.55603 97.261993 309.588013 C 97.261993 309.593323 97.261993 309.598694 97.261993 309.604004 C 97.262543 309.685364 97.263611 309.756042 97.264008 309.838684 C 97.264008 309.848022 97.264008 309.85199 97.264526 309.861328 C 97.264526 309.893311 97.265076 309.922668 97.265594 309.954651 C 97.265594 309.965332 97.265594 309.973328 97.265594 309.984009 C 97.266144 310.015991 97.266144 310.038696 97.266663 310.069336 C 97.267212 310.082703 97.267212 310.09198 97.267212 310.105347 C 97.267731 310.132019 97.26828 310.158691 97.26828 310.185364 C 97.268799 310.198669 97.268799 310.210693 97.268799 310.223999 C 97.269318 310.250671 97.269745 310.274658 97.269745 310.302673 C 97.270264 310.314697 97.270264 310.32666 97.270264 310.338684 C 97.270813 310.370667 97.271332 310.392029 97.271881 310.424011 C 97.271881 310.430664 97.2724 310.445313 97.2724 310.453369 C 97.272919 310.485352 97.272919 310.512024 97.273468 310.544006 C 97.273987 310.550659 97.273987 310.56134 97.273987 310.569336 C 97.274536 310.605347 97.275055 310.634705 97.275482 310.670654 C 97.276001 310.67334 97.276001 310.681335 97.276001 310.684021 C 97.278137 310.801331 97.280273 310.922668 97.282806 311.041321 L 97.282806 311.042664 C 97.283875 311.082703 97.284393 311.116028 97.285461 311.157349 C 97.285461 311.159973 97.285461 311.16803 97.285461 311.169373 C 97.286011 311.201355 97.286926 311.244019 97.287476 311.274658 C 97.287994 311.280029 97.287994 311.283997 97.287994 311.289368 C 97.288544 311.325317 97.289612 311.358643 97.29068 311.394653 C 97.29068 311.400024 97.29068 311.401367 97.29068 311.406677 C 97.291718 311.442688 97.292145 311.477356 97.293213 311.513367 C 97.293213 311.518677 97.293213 311.52002 97.293213 311.52533 C 97.294281 311.56134 97.295319 311.600037 97.296387 311.635986 L 97.296387 311.641357 C 98.293732 351.445313 118.353607 386.982666 149.546936 411.097351"/>
            <path id="path26" fill="#050707" stroke="none" d="M 407.109375 473.95575 C 407.125305 473.95575 407.141357 473.95575 407.157349 473.95575 C 407.1427 473.95575 407.125305 473.95575 407.109375 473.95575 M 202.200012 420.019775 C 202.18399 420.019775 202.167999 420.019775 202.153351 420.019775 C 202.169342 420.019775 202.182678 420.019775 202.200012 420.019775 M 202.085327 420.019775 C 202.063995 420.019775 202.049347 420.019775 202.029327 420.019775 C 202.048004 420.019775 202.066681 420.019775 202.085327 420.019775 M 201.96933 420.019775 C 201.949341 420.019775 201.93335 420.019775 201.91333 420.018799 C 201.932007 420.019775 201.950684 420.019775 201.96933 420.019775 M 201.854675 420.018799 C 201.838684 420.018799 201.809326 420.018799 201.794678 420.018799 C 201.814667 420.018799 201.834686 420.018799 201.854675 420.018799 M 201.740021 420.018799 C 201.720001 420.018799 201.696014 420.018799 201.675995 420.018799 C 201.698669 420.018799 201.718658 420.018799 201.740021 420.018799 M 201.629333 420.018799 C 201.604004 420.018799 201.582672 420.018799 201.558655 420.018799 C 201.581329 420.018799 201.605347 420.018799 201.629333 420.018799 M 201.52002 420.017212 C 201.494659 420.017212 201.466675 420.017212 201.441345 420.017212 C 201.466675 420.017212 201.494659 420.017212 201.52002 420.017212 M 201.411987 420.017212 C 201.38266 420.017212 201.353333 420.017212 201.322662 420.017212 C 201.353333 420.017212 201.38266 420.017212 201.411987 420.017212 M 201.318665 420.017212 C 182.84668 419.907898 165.436401 416.759888 149.546936 411.097351 C 118.353607 386.982666 98.293732 351.445374 97.296387 311.641357 C 98.295319 351.440002 118.358795 386.973389 149.546417 411.086426 C 165.436401 416.750549 182.843994 419.90686 201.318665 420.017212 M 97.296387 311.636047 C 97.295319 311.600037 97.294281 311.56134 97.293213 311.52533 C 97.294281 311.562683 97.295319 311.598694 97.296387 311.636047 M 97.293213 311.513367 C 97.292145 311.477356 97.291718 311.442688 97.29068 311.406677 C 97.291718 311.441345 97.292145 311.478699 97.293213 311.513367 M 97.29068 311.394714 C 97.289612 311.358704 97.288544 311.325378 97.287994 311.289368 C 97.288544 311.324036 97.289612 311.360046 97.29068 311.394714 M 97.287476 311.274719 C 97.286926 311.244019 97.286011 311.201355 97.285461 311.169373 C 97.286011 311.205383 97.286926 311.240051 97.287476 311.274719 M 97.285461 311.157349 C 97.284393 311.116028 97.283875 311.082703 97.282806 311.042664 C 97.283875 311.082703 97.284393 311.117371 97.285461 311.157349 M 97.282806 311.041382 C 97.280273 310.922668 97.278137 310.801331 97.276001 310.684021 C 97.278137 310.804016 97.280273 310.921387 97.282806 311.041382 M 97.275482 310.670715 C 97.275055 310.634705 97.274536 310.605347 97.273987 310.569336 C 97.274536 310.604004 97.275055 310.636047 97.275482 310.670715 M 97.273468 310.544006 C 97.272919 310.512024 97.272919 310.485352 97.2724 310.453369 C 97.272919 310.485352 97.272919 310.510681 97.273468 310.544006 M 97.271881 310.424011 C 97.271332 310.392029 97.270813 310.370667 97.270264 310.338684 C 97.270813 310.368042 97.271332 310.393372 97.271881 310.424011 M 97.269745 310.302673 C 97.269745 310.274719 97.269318 310.250671 97.268799 310.22406 C 97.269318 310.248047 97.269745 310.277344 97.269745 310.302673 M 97.26828 310.185364 C 97.26828 310.158691 97.267731 310.132019 97.267212 310.105347 C 97.267731 310.132019 97.26828 310.158691 97.26828 310.185364 M 97.266663 310.069336 C 97.266144 310.038696 97.266144 310.016052 97.265594 309.984009 C 97.266144 310.012024 97.266663 310.042664 97.266663 310.069336 M 97.265594 309.954712 C 97.265076 309.922668 97.264526 309.893372 97.264526 309.861328 C 97.264526 309.892029 97.265076 309.925354 97.265594 309.954712 M 97.264008 309.838684 C 97.263611 309.756042 97.262543 309.685364 97.261993 309.604004 C 97.262543 309.681335 97.263611 309.76001 97.264008 309.838684 M 97.261993 309.588013 C 97.261475 309.55603 97.261475 309.52002 97.260925 309.48938 C 97.261475 309.521362 97.261475 309.55603 97.261993 309.588013 M 97.260406 309.454712 C 97.260406 309.426697 97.260406 309.40271 97.259857 309.376038 C 97.260406 309.400024 97.260406 309.429382 97.260406 309.454712 M 97.259857 309.332031 C 97.259857 309.304016 97.259338 309.286682 97.259338 309.258667 C 97.259338 309.283997 97.259857 309.306702 97.259857 309.332031 M 97.259338 309.213379 C 97.258789 309.190674 97.258789 309.16803 97.258789 309.145325 C 97.258789 309.16803 97.258789 309.192017 97.259338 309.213379 M 97.258392 309.096008 C 97.258392 309.073364 97.258392 309.052002 97.258392 309.029358 C 97.258392 309.052002 97.258392 309.073364 97.258392 309.096008 M 97.257874 308.981384 C 97.257874 308.958679 97.257874 308.936035 97.257874 308.91333 C 97.257874 308.936035 97.257874 308.958679 97.257874 308.981384 M 97.257874 308.865356 C 97.257874 308.842712 97.257874 308.81604 97.257324 308.793335 C 97.257874 308.818665 97.257874 308.84137 97.257874 308.865356 M 97.257324 308.750671 C 97.257324 308.72406 97.257324 308.701355 97.257324 308.67334 C 97.257324 308.701355 97.257324 308.72406 97.257324 308.750671 M 97.257324 308.634705 C 97.257324 308.598694 97.257324 308.557373 97.257324 308.52002 C 97.257324 308.558655 97.257324 308.597351 97.257324 308.634705 M 97.257324 308.52002 L 97.257324 308.52002 C 97.257324 308.484009 97.257324 308.446716 97.257324 308.410706 C 97.257324 308.447998 97.257324 308.484009 97.257324 308.52002 M 97.257324 308.376038 C 97.257324 308.353333 97.257324 308.322693 97.257324 308.300049 C 97.257324 308.325378 97.257324 308.350708 97.257324 308.376038 M 97.257324 308.26001 C 97.257324 308.237366 97.257874 308.213379 97.257874 308.190674 C 97.257874 308.213379 97.257324 308.237366 97.257324 308.26001 M 97.257874 308.14801 C 97.257874 308.125366 97.257874 308.102722 97.257874 308.080017 C 97.257874 308.102722 97.257874 308.124023 97.257874 308.14801 M 97.258392 308.038696 C 97.258392 308.016052 97.258392 307.992004 97.258392 307.96936 C 97.258392 307.990723 97.258392 308.017334 97.258392 308.038696 M 97.258789 307.92804 C 97.258789 307.905334 97.258789 307.88269 97.258789 307.858704 C 97.258789 307.88269 97.258789 307.905334 97.258789 307.92804 M 97.259338 307.820007 C 97.259338 307.791992 97.259338 307.776001 97.259338 307.749329 C 97.259338 307.772034 97.259338 307.797363 97.259338 307.820007 M 97.259857 307.709351 C 97.259857 307.682678 97.259857 307.665344 97.260406 307.638672 C 97.259857 307.661377 97.259857 307.686707 97.259857 307.709351 M 97.260406 307.602722 C 97.260925 307.575989 97.260925 307.554688 97.261475 307.528015 C 97.260925 307.553345 97.260925 307.577332 97.260406 307.602722 M 97.261475 307.493347 C 97.261993 307.466675 97.261993 307.444031 97.261993 307.417358 C 97.261993 307.442688 97.261475 307.468018 97.261475 307.493347 M 97.262543 307.385376 C 97.262543 307.358704 97.263062 307.334717 97.263062 307.306702 C 97.263062 307.332031 97.262543 307.360046 97.262543 307.385376 M 97.263611 307.274719 C 97.263611 307.248047 97.264008 307.22406 97.264008 307.196045 C 97.264008 307.221375 97.263611 307.249329 97.263611 307.274719 M 97.264526 307.166687 C 97.265076 307.138672 97.265076 307.113342 97.265594 307.085388 C 97.265076 307.113342 97.265076 307.138672 97.264526 307.166687 M 97.265594 307.057373 C 97.266144 307.030701 97.266144 307.002686 97.266663 306.97467 C 97.266144 307.002686 97.266144 307.030701 97.265594 307.057373 M 97.267212 306.949341 C 97.267731 306.917358 97.267731 306.895996 97.26828 306.865356 C 97.267731 306.892029 97.267731 306.922668 97.267212 306.949341 M 97.268799 306.838684 C 97.268799 306.808044 97.269318 306.783997 97.269745 306.753357 C 97.269318 306.780029 97.268799 306.812012 97.268799 306.838684 M 97.269745 306.733337 C 97.270264 306.701355 97.270813 306.67334 97.271332 306.641357 C 97.270813 306.672058 97.270264 306.704041 97.269745 306.733337 M 97.271332 306.624023 C 97.2724 306.592041 97.2724 306.562683 97.272919 306.532043 C 97.272919 306.56134 97.2724 306.593323 97.271332 306.624023 M 97.273468 306.514709 C 97.273987 306.482666 97.274536 306.453369 97.275055 306.421387 C 97.274536 306.450684 97.273987 306.484009 97.273468 306.514709 M 97.275055 306.404053 C 97.275482 306.372009 97.276001 306.340027 97.27652 306.308044 C 97.276001 306.338684 97.275482 306.374695 97.275055 306.404053 M 97.277069 306.298706 C 97.277588 306.262695 97.278137 306.233337 97.279205 306.197327 C 97.278137 306.230713 97.277588 306.264038 97.277069 306.298706 M 97.279205 306.189392 C 97.279724 306.153381 97.280273 306.122681 97.281189 306.08667 C 97.280273 306.121338 97.279724 306.154724 97.279205 306.189392 M 97.281189 306.080017 C 97.281738 306.042664 97.282257 306.012024 97.283325 305.976013 C 97.282257 306.010681 97.281738 306.045349 97.281189 306.080017 M 97.283325 305.96936 C 98.037994 269.094666 115.152679 235.845398 142.341217 211.893372 C 157.621857 206.997375 174.040131 204.29071 191.149323 204.185364 C 174.042664 204.29071 157.624542 207.006714 142.345856 211.90271 C 115.161469 235.85199 98.04068 269.101379 97.283325 305.96936"/>
            <path id="path28" fill="#ed118d" stroke="none" d="M 461.270691 464.574585 L 461.270691 443.40271 C 478.562683 443.350586 495.158691 440.63855 510.590637 435.694824 C 496.549377 448.0625 479.817322 457.952148 461.270691 464.574585"/>
            <path id="path30" fill="#232d5f" stroke="none" d="M 428.227966 472.536011 L 428.227966 420.006836 C 428.263977 420.005249 428.301331 420.005249 428.335999 420.005249 C 428.34668 420.005249 428.353271 420.005249 428.363953 420.005249 C 428.394653 420.005249 428.429321 420.005249 428.459961 420.005249 C 428.465332 420.005249 428.466614 420.005249 428.471985 420.005249 C 428.510681 420.005249 428.544006 420.005249 428.582642 420.00415 C 428.587952 420.00415 428.595947 420.00415 428.601318 420.00415 C 428.633301 420.00415 428.666626 420.00415 428.698669 420.00415 C 428.702637 420.00415 428.710632 420.00415 428.714661 420.00415 C 428.753296 420.00415 428.790649 420.00415 428.827942 420.002686 L 428.833313 420.002686 C 428.867981 420.002686 428.907959 420.002686 428.942627 420.002686 C 428.947998 420.002686 428.950623 420.002686 428.955994 420.002686 C 429.031982 420.001587 429.106628 420.001587 429.182678 420 L 429.197327 420 C 429.274658 420 429.35199 419.998413 429.427979 419.998413 L 429.433289 419.998413 C 429.513306 419.997314 429.590637 419.99585 429.670654 419.99585 L 429.670654 419.99585 C 429.70929 419.994812 429.749329 419.994812 429.786621 419.994812 L 429.791992 419.993225 C 429.869324 419.993225 429.951965 419.992188 430.027954 419.990723 L 430.031982 419.990723 C 430.390625 419.985474 430.747986 419.980286 431.105286 419.971924 L 431.110657 419.971924 C 431.190613 419.970825 431.26532 419.96936 431.345337 419.968262 L 431.347961 419.968262 C 431.466614 419.965088 431.583984 419.962524 431.701294 419.959839 L 431.708008 419.958801 C 431.787964 419.957336 431.858643 419.956299 431.93866 419.953125 L 431.949341 419.953125 C 432.02533 419.952148 432.102661 419.949463 432.17865 419.947876 L 432.187988 419.94696 C 432.263977 419.945313 432.343994 419.942688 432.419983 419.941223 L 432.425293 419.940186 C 432.462646 419.940186 432.495972 419.938538 432.534668 419.9375 L 432.544006 419.9375 C 432.619934 419.934937 432.691956 419.93335 432.768005 419.930664 C 432.778625 419.930664 432.777344 419.930664 432.786621 419.930664 C 432.86261 419.928162 432.930664 419.925476 433.006653 419.922424 C 433.015991 419.922424 433.018616 419.922424 433.029297 419.922424 C 433.059998 419.921387 433.098633 419.919739 433.129333 419.918823 L 433.137329 419.918823 C 433.175964 419.917236 433.20929 419.917236 433.247986 419.916138 C 433.257324 419.914551 433.258606 419.914551 433.268005 419.914551 C 433.299988 419.913574 433.330627 419.911987 433.36261 419.911987 C 433.366638 419.911987 433.374634 419.9104 433.380005 419.9104 C 433.414673 419.909363 433.453308 419.907898 433.487976 419.90686 C 433.491943 419.90686 433.501282 419.90686 433.506653 419.90686 C 433.537292 419.905212 433.567993 419.904175 433.598633 419.904175 C 433.609314 419.90271 433.612 419.90271 433.621277 419.90271 C 433.655945 419.901611 433.693298 419.900024 433.727966 419.898438 C 433.733337 419.898438 433.73999 419.898438 433.743958 419.898438 C 433.771973 419.897339 433.805298 419.895874 433.833313 419.894775 C 433.842651 419.894775 433.855957 419.894775 433.866638 419.893188 C 433.890625 419.893188 433.922607 419.892151 433.946655 419.890686 C 433.955994 419.890686 433.967957 419.889648 433.978638 419.889648 C 434.009338 419.888 434.041321 419.886414 434.07196 419.886414 C 434.086609 419.885498 434.095947 419.885498 434.110657 419.883911 C 434.134644 419.883911 434.155945 419.882813 434.179993 419.881226 C 434.194641 419.881226 434.201294 419.881226 434.216003 419.880249 C 434.25061 419.878662 434.277344 419.878662 434.310669 419.877075 C 434.32666 419.875977 434.339966 419.875977 434.354614 419.874512 C 434.374634 419.874512 434.393311 419.873474 434.41333 419.871887 C 434.427979 419.871887 434.447998 419.87085 434.462646 419.87085 C 434.489319 419.869385 434.517273 419.868286 434.544006 419.868286 C 434.563965 419.866699 434.580017 419.865112 434.599976 419.865112 C 434.61731 419.864014 434.634644 419.864014 434.651978 419.862549 C 434.670654 419.862549 434.686646 419.86145 434.706665 419.859863 C 434.723938 419.859863 434.73999 419.858826 434.757324 419.858826 C 434.786621 419.857361 434.814636 419.855713 434.843994 419.854675 C 434.861328 419.854675 434.875977 419.853088 434.891968 419.853088 C 434.911987 419.852173 434.933289 419.850586 434.953308 419.850586 C 434.962646 419.849487 434.978638 419.849487 434.987976 419.8479 C 435.057312 419.845337 435.131958 419.842651 435.199951 419.838562 C 435.208008 419.838562 435.219971 419.838562 435.226624 419.837524 C 435.301331 419.834961 435.381348 419.830688 435.455994 419.828125 L 435.463989 419.826538 C 489.369324 417.316162 533.216003 388.725342 555.374634 347.669373 C 552.97998 382.124023 536.282654 413.062561 510.590637 435.694824 C 495.15863 440.63855 478.562622 443.350586 461.27063 443.40271 L 461.27063 464.574585 C 450.783936 468.319763 439.721313 471.018799 428.227966 472.536011"/>
            <path id="path32" fill="#050707" stroke="none" d="M 407.202637 473.954712 C 414.342651 473.925476 421.359985 473.431763 428.227966 472.525513 L 428.227966 472.536011 C 421.361328 473.442688 414.339966 473.925476 407.202637 473.954712 M 428.335999 420.005249 C 428.34668 420.005249 428.353271 420.005249 428.363953 420.005249 C 428.353271 420.005249 428.34668 420.005249 428.335999 420.005249 M 428.459961 420.005249 C 428.463989 420.005249 428.467957 420.005249 428.471985 420.005249 C 428.466614 420.005249 428.465332 420.005249 428.459961 420.005249 M 428.582642 420.00415 C 428.589294 420.00415 428.594666 420.00415 428.601318 420.00415 C 428.595947 420.00415 428.587952 420.00415 428.582642 420.00415 M 428.698669 420.00415 C 428.701294 420.00415 428.711975 420.00415 428.714661 420.00415 C 428.710632 420.00415 428.702637 420.00415 428.698669 420.00415 M 428.827942 420.002686 C 428.83197 420.002686 428.829285 420.002686 428.833313 420.002686 L 428.827942 420.002686 M 428.942627 420.002686 C 428.945313 420.002686 428.951965 420.002686 428.955994 420.002686 C 428.950623 420.002686 428.947998 420.002686 428.942627 420.002686 M 429.182678 420 C 429.18927 420 429.190613 420 429.197327 420 L 429.182678 420 M 429.427979 419.998413 L 429.433289 419.998413 L 429.427979 419.998413 M 429.670654 419.99585 L 429.670654 419.99585 L 429.670654 419.99585 M 429.786621 419.994812 C 429.790649 419.993225 429.789307 419.994812 429.791992 419.993225 L 429.786621 419.994812 M 430.027954 419.990723 C 430.031982 419.990723 430.027954 419.990723 430.031982 419.990723 L 430.027954 419.990723 M 431.105286 419.971924 L 431.110657 419.971924 L 431.105286 419.971924 M 431.345337 419.968262 L 431.347961 419.968262 L 431.345337 419.968262 M 431.701294 419.959839 L 431.708008 419.958801 L 431.701294 419.959839 M 431.93866 419.953125 C 431.942627 419.953125 431.945313 419.953125 431.949341 419.953125 L 431.93866 419.953125 M 432.17865 419.947876 C 432.182678 419.94696 432.18396 419.94696 432.187988 419.94696 L 432.17865 419.947876 M 432.419983 419.941223 L 432.425293 419.940186 L 432.419983 419.941223 M 432.534668 419.9375 C 432.538635 419.9375 432.539978 419.9375 432.544006 419.9375 L 432.534668 419.9375 M 432.768005 419.930664 C 432.771973 419.930664 432.783936 419.930664 432.786621 419.930664 C 432.777344 419.930664 432.778625 419.930664 432.768005 419.930664 M 433.006653 419.922424 C 433.013306 419.922424 433.022644 419.922424 433.029297 419.922424 C 433.018616 419.922424 433.015991 419.922424 433.006653 419.922424 M 433.129333 419.918823 C 433.133301 419.918823 433.134644 419.918823 433.137329 419.918823 L 433.129333 419.918823 M 433.247986 419.916138 C 433.254639 419.914551 433.261292 419.914551 433.268005 419.914551 C 433.258606 419.914551 433.257324 419.914551 433.247986 419.916138 M 433.36261 419.911987 C 433.369324 419.9104 433.373291 419.9104 433.380005 419.9104 C 433.374634 419.9104 433.366638 419.911987 433.36261 419.911987 M 433.487976 419.90686 C 433.494629 419.90686 433.5 419.90686 433.506653 419.90686 C 433.501282 419.90686 433.491943 419.90686 433.487976 419.90686 M 433.598633 419.904175 C 433.605286 419.90271 433.614685 419.90271 433.621277 419.90271 C 433.612 419.90271 433.609314 419.90271 433.598633 419.904175 M 433.727966 419.898438 C 433.734619 419.898438 433.737305 419.898438 433.743958 419.898438 C 433.73999 419.898438 433.733337 419.898438 433.727966 419.898438 M 433.833313 419.894775 C 433.84668 419.894775 433.85199 419.894775 433.866638 419.893188 C 433.855957 419.894775 433.842651 419.894775 433.833313 419.894775 M 433.946655 419.890686 C 433.957275 419.890686 433.967957 419.889648 433.978638 419.889648 C 433.967957 419.889648 433.955994 419.890686 433.946655 419.890686 M 434.07196 419.886414 C 434.086609 419.885498 434.095947 419.885498 434.110657 419.883911 C 434.095947 419.885498 434.086609 419.885498 434.07196 419.886414 M 434.179993 419.881226 C 434.190613 419.881226 434.206665 419.881226 434.216003 419.880249 C 434.201294 419.881226 434.194641 419.881226 434.179993 419.881226 M 434.310669 419.877075 C 434.325317 419.875977 434.341309 419.875977 434.354614 419.874512 C 434.339966 419.875977 434.32666 419.875977 434.310669 419.877075 M 434.41333 419.871887 C 434.427979 419.871887 434.447998 419.87085 434.462646 419.87085 C 434.447998 419.87085 434.427979 419.871887 434.41333 419.871887 M 434.544006 419.868286 C 434.565308 419.866699 434.580017 419.865112 434.599976 419.865112 C 434.580017 419.865112 434.563965 419.866699 434.544006 419.868286 M 434.651978 419.862549 C 434.667969 419.862549 434.68927 419.86145 434.706665 419.859863 C 434.686646 419.86145 434.670654 419.862549 434.651978 419.862549 M 434.757324 419.858826 C 434.785278 419.857361 434.815979 419.855713 434.843994 419.854675 C 434.814636 419.855713 434.786621 419.857361 434.757324 419.858826 M 434.891968 419.853088 C 434.91333 419.852173 434.931946 419.850586 434.953308 419.850586 C 434.933289 419.850586 434.911987 419.852173 434.891968 419.853088 M 434.987976 419.8479 C 435.061279 419.845337 435.127991 419.842651 435.199951 419.838562 C 435.131958 419.842651 435.057312 419.845337 434.987976 419.8479 M 435.226624 419.837524 C 435.305298 419.834961 435.377319 419.830688 435.455994 419.828125 C 435.381348 419.830688 435.301331 419.834961 435.226624 419.837524 M 435.463989 419.826538 C 489.363953 417.317261 533.199951 388.721375 555.361328 347.672058 C 555.557312 344.857361 555.670654 342.021362 555.671997 339.161377 C 555.670654 342.02002 555.570679 344.854675 555.374634 347.669373 C 533.216003 388.725342 489.369324 417.316162 435.463989 419.826538 M 191.156006 204.185364 C 191.190674 204.185364 191.213318 204.185364 191.249329 204.185364 C 191.217316 204.185364 191.186646 204.185364 191.156006 204.185364 M 191.266663 204.185364 C 191.38266 204.184021 191.506653 204.184021 191.621338 204.182739 C 191.503998 204.184021 191.385315 204.184021 191.266663 204.185364 M 191.675995 204.182739 C 191.691986 204.182739 191.713318 204.182739 191.729309 204.182739 C 191.711975 204.182739 191.693329 204.182739 191.675995 204.182739 M 191.789337 204.182739 C 191.809326 204.182739 191.819977 204.182739 191.839996 204.182739 C 191.822662 204.182739 191.806671 204.182739 191.789337 204.182739 M 191.905334 204.182739 C 191.921326 204.182739 191.937317 204.182739 191.951996 204.182739 C 191.937317 204.182739 191.921326 204.182739 191.905334 204.182739 M 192.023987 204.182739 C 192.038666 204.182739 192.049316 204.182739 192.063995 204.182739 C 192.050659 204.182739 192.037323 204.182739 192.023987 204.182739"/>
            <path id="path34" fill="#0a0e0d" stroke="none" d="M 407.007996 487.609375 L 407.007996 487.609375 L 407.007996 473.95575 C 407.044006 473.95575 407.074707 473.95575 407.109375 473.95575 C 407.075989 473.95575 407.042664 473.95575 407.007996 473.95575 L 407.007996 487.609375 M 407.157349 473.95575 C 407.171997 473.95575 407.186646 473.95575 407.202698 473.954712 C 407.186646 473.95575 407.171997 473.95575 407.157349 473.95575 M 555.671997 339.161316 C 555.671997 339.134705 555.671997 339.102661 555.671997 339.074707 L 555.671997 339.074707 C 555.671997 339.104004 555.671997 339.132019 555.671997 339.161316 M 191.149323 204.185303 C 191.152008 204.185303 191.153351 204.185303 191.156006 204.185303 L 191.149323 204.185303 M 191.249329 204.185303 C 191.254669 204.185303 191.26001 204.185303 191.266663 204.185303 C 191.261322 204.185303 191.253326 204.185303 191.249329 204.185303 M 191.621338 204.182678 C 191.640015 204.182678 191.658661 204.182678 191.675995 204.182678 C 191.656006 204.182678 191.64267 204.182678 191.621338 204.182678 M 191.72934 204.182678 C 191.749329 204.182678 191.769348 204.182678 191.789337 204.182678 C 191.769348 204.182678 191.749329 204.182678 191.72934 204.182678 M 191.839996 204.182678 C 191.862671 204.182678 191.884003 204.182678 191.905334 204.182678 C 191.885345 204.182678 191.859985 204.182678 191.839996 204.182678 M 191.951996 204.182678 C 191.975983 204.182678 192 204.182678 192.024017 204.182678 C 191.998657 204.182678 191.977325 204.182678 191.951996 204.182678 M 192.063995 204.182678 C 192.101349 204.182678 192.138672 204.182678 192.175995 204.182678 C 192.140015 204.182678 192.100006 204.182678 192.063995 204.182678"/>
            <path id="path36" fill="#060809" stroke="none" d="M 428.227966 472.525513 L 428.227966 420.006836 C 428.263977 420.005249 428.301331 420.005249 428.335999 420.005249 C 428.301331 420.005249 428.263977 420.005249 428.227966 420.006836 L 428.227966 472.525513 L 428.227966 472.525513 M 331.139954 443.417236 L 331.139954 443.417236 L 311.062622 420.019775 L 202.314667 420.019775 C 202.27597 420.019775 202.237335 420.019775 202.199982 420.019775 C 202.23999 420.019775 202.274658 420.019775 202.314667 420.019775 L 311.062622 420.019775 L 331.139954 443.417236 M 202.15332 420.019775 C 202.130646 420.019775 202.108002 420.019775 202.085327 420.019775 C 202.105316 420.019775 202.133331 420.019775 202.15332 420.019775 M 202.029327 420.019775 C 202.009308 420.019775 201.989319 420.019775 201.96933 420.019775 C 201.989319 420.019775 202.009308 420.019775 202.029327 420.019775 M 201.91333 420.018799 C 201.891968 420.018799 201.874664 420.018799 201.854645 420.018799 C 201.874664 420.018799 201.893311 420.018799 201.91333 420.018799 M 201.794647 420.018799 C 201.777313 420.018799 201.757324 420.018799 201.73999 420.018799 C 201.761322 420.018799 201.774658 420.018799 201.794647 420.018799 M 201.675995 420.018799 C 201.659973 420.018799 201.645325 420.018799 201.629303 420.018799 C 201.643982 420.018799 201.661316 420.018799 201.675995 420.018799 M 201.558655 420.018799 C 201.543976 420.018799 201.533325 420.017212 201.519989 420.017212 C 201.534668 420.017212 201.542633 420.018799 201.558655 420.018799 M 201.441315 420.017212 C 201.430664 420.017212 201.422668 420.017212 201.411987 420.017212 C 201.422668 420.017212 201.431976 420.017212 201.441315 420.017212 M 201.322662 420.017212 C 201.32132 420.017212 201.318665 420.017212 201.318665 420.017212 L 201.322662 420.017212 M 428.363953 420.005249 C 428.393311 420.005249 428.430664 420.005249 428.459961 420.005249 C 428.429321 420.005249 428.394653 420.005249 428.363953 420.005249 M 428.471985 420.005249 C 428.511963 420.005249 428.542664 420.005249 428.582642 420.00415 C 428.544006 420.005249 428.510681 420.005249 428.471985 420.005249 M 428.601318 420.00415 C 428.631958 420.00415 428.667969 420.00415 428.698669 420.00415 C 428.666626 420.00415 428.633301 420.00415 428.601318 420.00415 M 428.714661 420.00415 C 428.754639 420.00415 428.787964 420.00415 428.827942 420.002686 C 428.790649 420.00415 428.753296 420.00415 428.714661 420.00415 M 428.833313 420.002686 C 428.867981 420.002686 428.907959 420.002686 428.942627 420.002686 C 428.907959 420.002686 428.867981 420.002686 428.833313 420.002686 M 428.955994 420.002686 C 429.03595 420.001587 429.102661 420.001587 429.182678 420 C 429.106628 420.001587 429.031982 420.001587 428.955994 420.002686 M 429.197327 420 C 429.277344 420 429.347961 419.998413 429.427979 419.998413 C 429.35199 419.998413 429.274658 420 429.197327 420 M 429.433289 419.998413 C 429.513306 419.997314 429.590637 419.99585 429.670654 419.99585 C 429.590637 419.99585 429.513306 419.997314 429.433289 419.998413 M 429.670654 419.99585 C 429.710632 419.994812 429.746643 419.994812 429.786621 419.994812 C 429.749329 419.994812 429.70929 419.994812 429.670654 419.99585 M 429.791992 419.993225 C 429.872009 419.993225 429.947998 419.992188 430.027954 419.990723 C 429.951965 419.992188 429.869324 419.993225 429.791992 419.993225 M 430.031982 419.990723 C 430.391968 419.985474 430.746643 419.980286 431.105286 419.971924 C 430.747986 419.980286 430.390625 419.985474 430.031982 419.990723 M 431.110657 419.971924 C 431.190613 419.970825 431.266663 419.96936 431.345337 419.968262 C 431.26532 419.96936 431.190613 419.970825 431.110657 419.971924 M 431.347961 419.968262 C 431.467957 419.965088 431.581299 419.962524 431.701294 419.959839 C 431.583984 419.962524 431.466614 419.965088 431.347961 419.968262 M 431.708008 419.958801 C 431.787964 419.957336 431.858643 419.956299 431.93866 419.953125 C 431.858643 419.956299 431.787964 419.957336 431.708008 419.958801 M 431.949341 419.953125 C 432.027954 419.950562 432.098633 419.949463 432.17865 419.947876 C 432.102661 419.949463 432.02533 419.952148 431.949341 419.953125 M 432.187988 419.94696 C 432.266663 419.945313 432.339966 419.942688 432.419983 419.941223 C 432.343994 419.942688 432.263977 419.945313 432.187988 419.94696 M 432.425293 419.940186 C 432.463989 419.940186 432.494629 419.938538 432.534668 419.9375 C 432.495972 419.938538 432.462646 419.940186 432.425293 419.940186 M 432.544006 419.9375 C 432.618652 419.934937 432.694641 419.93335 432.768005 419.930664 C 432.691956 419.93335 432.619934 419.934937 432.544006 419.9375 M 432.786621 419.930664 C 432.855957 419.928162 432.937317 419.925476 433.006653 419.922424 C 432.930664 419.925476 432.86261 419.928162 432.786621 419.930664 M 433.029297 419.922424 C 433.063965 419.921387 433.094666 419.919739 433.129333 419.918823 C 433.098633 419.919739 433.059998 419.921387 433.029297 419.922424 M 433.137329 419.918823 C 433.17334 419.917236 433.211975 419.916138 433.247986 419.916138 C 433.20929 419.917236 433.175964 419.917236 433.137329 419.918823 M 433.268005 419.914551 C 433.298645 419.913574 433.33197 419.911987 433.36261 419.911987 C 433.330627 419.911987 433.299988 419.913574 433.268005 419.914551 M 433.380005 419.9104 C 433.41864 419.909363 433.447998 419.907898 433.487976 419.90686 C 433.453308 419.907898 433.414673 419.909363 433.380005 419.9104 M 433.506653 419.90686 C 433.53595 419.905212 433.569336 419.904175 433.598633 419.904175 C 433.567993 419.904175 433.537292 419.905212 433.506653 419.90686 M 433.621277 419.90271 C 433.655945 419.901611 433.693298 419.900024 433.727966 419.898438 C 433.693298 419.900024 433.655945 419.901611 433.621277 419.90271 M 433.743958 419.898438 C 433.774658 419.897339 433.803955 419.895874 433.833313 419.894775 C 433.805298 419.895874 433.771973 419.897339 433.743958 419.898438 M 433.866638 419.893188 C 433.895996 419.892151 433.917297 419.892151 433.946655 419.890686 C 433.922607 419.892151 433.890625 419.893188 433.866638 419.893188 M 433.978638 419.889648 C 434.007996 419.888 434.042664 419.886414 434.07196 419.886414 C 434.041321 419.886414 434.009338 419.888 433.978638 419.889648 M 434.110657 419.883911 C 434.130615 419.883911 434.159973 419.882813 434.179993 419.881226 C 434.155945 419.882813 434.134644 419.883911 434.110657 419.883911 M 434.216003 419.880249 C 434.246643 419.878662 434.281311 419.877075 434.310669 419.877075 C 434.277344 419.878662 434.25061 419.878662 434.216003 419.880249 M 434.354614 419.874512 C 434.374634 419.874512 434.393311 419.873474 434.41333 419.871887 C 434.393311 419.873474 434.374634 419.874512 434.354614 419.874512 M 434.462646 419.87085 C 434.491943 419.869385 434.514648 419.868286 434.544006 419.868286 C 434.517273 419.868286 434.489319 419.869385 434.462646 419.87085 M 434.599976 419.865112 C 434.614685 419.864014 434.635986 419.864014 434.651978 419.862549 C 434.634644 419.864014 434.61731 419.864014 434.599976 419.865112 M 434.706665 419.859863 C 434.721313 419.859863 434.742676 419.858826 434.757324 419.858826 C 434.73999 419.858826 434.723938 419.859863 434.706665 419.859863 M 434.843994 419.854675 C 434.858643 419.854675 434.877319 419.853088 434.891968 419.853088 C 434.875977 419.853088 434.861328 419.854675 434.843994 419.854675 M 434.953308 419.850586 C 434.967957 419.849487 434.973328 419.849487 434.987976 419.8479 C 434.978638 419.849487 434.962646 419.849487 434.953308 419.850586 M 435.199951 419.838562 C 435.210632 419.838562 435.217285 419.838562 435.226624 419.837524 C 435.219971 419.838562 435.208008 419.838562 435.199951 419.838562 M 435.455994 419.828125 C 435.461304 419.826538 435.458618 419.826538 435.463989 419.826538 L 435.455994 419.828125"/>
            <path id="path38" fill="#170a0c" stroke="none" d="M 407.007996 487.610413 L 358.678711 443.417236 L 331.140015 443.417236 L 331.140015 443.417236 L 358.678711 443.417236 L 407.007996 487.609375 L 407.007996 487.610413 M 97.296387 311.641357 L 97.296387 311.635986 L 97.296387 311.641357 M 97.293213 311.52533 C 97.293213 311.52002 97.293213 311.518677 97.293213 311.513367 C 97.293213 311.518677 97.293213 311.52002 97.293213 311.52533 M 97.29068 311.406677 C 97.29068 311.401367 97.29068 311.400024 97.29068 311.394653 C 97.29068 311.398682 97.29068 311.402649 97.29068 311.406677 M 97.287994 311.289368 C 97.287994 311.283997 97.287994 311.280029 97.287476 311.274658 C 97.287476 311.280029 97.287994 311.285339 97.287994 311.289368 M 97.285461 311.169373 C 97.285461 311.16803 97.285461 311.159973 97.285461 311.157349 C 97.285461 311.161316 97.285461 311.165344 97.285461 311.169373 M 97.282806 311.042664 L 97.282806 311.041321 L 97.282806 311.042664 M 97.276001 310.684021 C 97.276001 310.681335 97.276001 310.67334 97.275482 310.670654 C 97.276001 310.674683 97.276001 310.679993 97.276001 310.684021 M 97.273987 310.569336 C 97.273987 310.56134 97.273987 310.550659 97.273468 310.544006 C 97.273987 310.548035 97.273987 310.564026 97.273987 310.569336 M 97.2724 310.453369 C 97.2724 310.445313 97.271881 310.430664 97.271881 310.424011 C 97.271881 310.432007 97.2724 310.444031 97.2724 310.453369 M 97.270264 310.338684 C 97.270264 310.32666 97.270264 310.314697 97.269745 310.302673 C 97.270264 310.310669 97.270264 310.329346 97.270264 310.338684 M 97.268799 310.223999 C 97.268799 310.210693 97.268799 310.198669 97.26828 310.185364 C 97.268799 310.200012 97.268799 310.209351 97.268799 310.223999 M 97.267212 310.105347 C 97.267212 310.09198 97.267212 310.082703 97.266663 310.069336 C 97.267212 310.078674 97.267212 310.096008 97.267212 310.105347 M 97.265594 309.984009 C 97.265594 309.973328 97.265594 309.965332 97.265594 309.954651 C 97.265594 309.963989 97.265594 309.97467 97.265594 309.984009 M 97.264526 309.861328 C 97.264008 309.85199 97.264008 309.848022 97.264008 309.838684 C 97.264008 309.842651 97.264526 309.857361 97.264526 309.861328 M 97.261993 309.604004 C 97.261993 309.598694 97.261993 309.593323 97.261993 309.588013 C 97.261993 309.59198 97.261993 309.600037 97.261993 309.604004 M 97.260925 309.489319 C 97.260925 309.476013 97.260925 309.466675 97.260406 309.454651 C 97.260925 309.463989 97.260925 309.47998 97.260925 309.489319 M 97.259857 309.375977 C 97.259857 309.359985 97.259857 309.34668 97.259857 309.332031 C 97.259857 309.345337 97.259857 309.361328 97.259857 309.375977 M 97.259338 309.258667 C 97.259338 309.244019 97.259338 309.229309 97.259338 309.213318 C 97.259338 309.228027 97.259338 309.245361 97.259338 309.258667 M 97.258789 309.145325 C 97.258789 309.130676 97.258789 309.110657 97.258392 309.096008 C 97.258789 309.114685 97.258789 309.127991 97.258789 309.145325 M 97.258392 309.029358 C 97.258392 309.012024 97.258392 308.998657 97.257874 308.981323 C 97.258392 308.99469 97.258392 309.015991 97.258392 309.029358 M 97.257874 308.91333 C 97.257874 308.898682 97.257874 308.881348 97.257874 308.865356 C 97.257874 308.884033 97.257874 308.895996 97.257874 308.91333 M 97.257324 308.793335 C 97.257324 308.781311 97.257324 308.763977 97.257324 308.750671 C 97.257324 308.76532 97.257324 308.780029 97.257324 308.793335 M 97.257324 308.67334 C 97.257324 308.661316 97.257324 308.64801 97.257324 308.634705 C 97.257324 308.649353 97.257324 308.659973 97.257324 308.67334 M 97.257324 308.410645 C 97.257324 308.398682 97.257324 308.388 97.257324 308.375977 C 97.257324 308.389343 97.257324 308.397339 97.257324 308.410645 M 97.257324 308.299988 C 97.257324 308.286682 97.257324 308.274658 97.257324 308.26001 C 97.257324 308.273376 97.257324 308.286682 97.257324 308.299988 M 97.257874 308.190674 C 97.257874 308.176025 97.257874 308.161316 97.257874 308.14801 C 97.257874 308.161316 97.257874 308.176025 97.257874 308.190674 M 97.257874 308.080017 C 97.257874 308.06665 97.258392 308.052002 97.258392 308.038696 C 97.258392 308.052002 97.257874 308.06665 97.257874 308.080017 M 97.258392 307.96936 C 97.258392 307.955994 97.258392 307.942688 97.258789 307.927979 C 97.258392 307.942688 97.258392 307.955994 97.258392 307.96936 M 97.258789 307.858643 C 97.258789 307.845337 97.258789 307.833313 97.259338 307.820007 C 97.258789 307.833313 97.258789 307.845337 97.258789 307.858643 M 97.259338 307.749329 C 97.259857 307.73468 97.259857 307.723999 97.259857 307.709351 C 97.259857 307.718689 97.259338 307.73999 97.259338 307.749329 M 97.260406 307.638672 C 97.260406 307.626648 97.260406 307.614685 97.260406 307.602661 C 97.260406 307.612 97.260406 307.629333 97.260406 307.638672 M 97.261475 307.528015 C 97.261475 307.515991 97.261475 307.505371 97.261475 307.493347 C 97.261475 307.502686 97.261475 307.518677 97.261475 307.528015 M 97.261993 307.417358 C 97.261993 307.405334 97.262543 307.397339 97.262543 307.385315 C 97.262543 307.394653 97.261993 307.40802 97.261993 307.417358 M 97.263062 307.306702 C 97.263062 307.294678 97.263611 307.286682 97.263611 307.274658 C 97.263611 307.283997 97.263062 307.297363 97.263062 307.306702 M 97.264008 307.195984 C 97.264526 307.187988 97.264526 307.176025 97.264526 307.166687 C 97.264526 307.176025 97.264526 307.187988 97.264008 307.195984 M 97.265594 307.085327 C 97.265594 307.075989 97.265594 307.06665 97.265594 307.057373 C 97.265594 307.06665 97.265594 307.077332 97.265594 307.085327 M 97.266663 306.97467 C 97.267212 306.965332 97.267212 306.958679 97.267212 306.949341 C 97.267212 306.958679 97.267212 306.965332 97.266663 306.97467 M 97.26828 306.865356 C 97.26828 306.856018 97.26828 306.848022 97.268799 306.838684 C 97.268799 306.843994 97.26828 306.859985 97.26828 306.865356 M 97.269745 306.753357 C 97.269745 306.745361 97.269745 306.73999 97.269745 306.733337 C 97.269745 306.738708 97.269745 306.747986 97.269745 306.753357 M 97.271332 306.641357 C 97.271332 306.634705 97.271332 306.630676 97.271332 306.624023 C 97.271332 306.627991 97.271332 306.637329 97.271332 306.641357 M 97.272919 306.531982 C 97.273468 306.523987 97.273468 306.521362 97.273468 306.514648 C 97.273468 306.518677 97.273468 306.526672 97.272919 306.531982 M 97.275055 306.421326 C 97.275055 306.414673 97.275055 306.410645 97.275055 306.403992 C 97.275055 306.40802 97.275055 306.416016 97.275055 306.421326 M 97.27652 306.308044 C 97.277069 306.304016 97.277069 306.302673 97.277069 306.298645 C 97.277069 306.302673 97.277069 306.304016 97.27652 306.308044 M 97.279205 306.197327 C 97.279205 306.194641 97.279205 306.192017 97.279205 306.189331 L 97.279205 306.197327 M 97.281189 306.08667 C 97.281189 306.083984 97.281189 306.08136 97.281189 306.080017 L 97.281189 306.08667 M 97.283325 305.976013 C 97.283325 305.973328 97.283325 305.971985 97.283325 305.96936 L 97.283325 305.976013"/>
            <path id="path40" fill="#040606" stroke="none" d="M 407.007996 487.609375 L 358.678711 443.417236 L 331.140015 443.417236 L 311.062683 420.019775 L 202.314667 420.019775 C 202.274689 420.019775 202.240021 420.019775 202.200012 420.019775 C 202.182678 420.019775 202.169342 420.019775 202.153351 420.019775 C 202.133331 420.019775 202.105347 420.019775 202.085327 420.019775 C 202.066681 420.019775 202.048004 420.019775 202.029327 420.019775 C 202.009338 420.019775 201.989349 420.019775 201.96933 420.019775 C 201.950684 420.019775 201.932007 420.019775 201.91333 420.018799 C 201.893341 420.018799 201.874664 420.018799 201.854675 420.018799 C 201.834686 420.018799 201.814667 420.018799 201.794678 420.018799 C 201.774689 420.018799 201.761322 420.018799 201.740021 420.018799 C 201.718658 420.018799 201.698669 420.018799 201.675995 420.018799 C 201.661346 420.018799 201.644012 420.018799 201.629333 420.018799 C 201.605347 420.018799 201.581329 420.018799 201.558655 420.018799 C 201.542664 420.018799 201.534668 420.017212 201.52002 420.017212 C 201.494659 420.017212 201.466675 420.017212 201.441345 420.017212 C 201.432007 420.017212 201.422668 420.017212 201.411987 420.017212 C 201.38266 420.017212 201.353333 420.017212 201.322662 420.017212 L 201.318665 420.017212 C 182.843994 419.906799 165.436401 416.750549 149.546417 411.086426 C 118.358795 386.973389 98.295319 351.440002 97.296387 311.641357 L 97.296387 311.635986 C 97.295319 311.598694 97.294281 311.562683 97.293213 311.52533 C 97.293213 311.52002 97.293213 311.518677 97.293213 311.513367 C 97.292145 311.478699 97.291718 311.441345 97.29068 311.406677 C 97.29068 311.402649 97.29068 311.398682 97.29068 311.394653 C 97.289612 311.359985 97.288544 311.324036 97.287994 311.289368 C 97.287994 311.285339 97.287476 311.280029 97.287476 311.274658 C 97.286926 311.23999 97.286011 311.205322 97.285461 311.169373 C 97.285461 311.165344 97.285461 311.161316 97.285461 311.157349 C 97.284393 311.117371 97.283875 311.082703 97.282806 311.042664 L 97.282806 311.041321 C 97.280273 310.921326 97.278137 310.804016 97.276001 310.684021 C 97.276001 310.679993 97.276001 310.674683 97.275482 310.670654 C 97.275055 310.635986 97.274536 310.604004 97.273987 310.569336 C 97.273987 310.564026 97.273987 310.548035 97.273468 310.544006 C 97.272919 310.510681 97.272919 310.485352 97.2724 310.453369 C 97.2724 310.444031 97.271881 310.432007 97.271881 310.424011 C 97.271332 310.393311 97.270813 310.367981 97.270264 310.338684 C 97.270264 310.329346 97.270264 310.310669 97.269745 310.302673 C 97.269745 310.277344 97.269318 310.247986 97.268799 310.223999 C 97.268799 310.209351 97.268799 310.200012 97.26828 310.185364 C 97.26828 310.158691 97.267731 310.132019 97.267212 310.105347 C 97.267212 310.096008 97.267212 310.078674 97.266663 310.069336 C 97.266663 310.042664 97.266144 310.012024 97.265594 309.984009 C 97.265594 309.97467 97.265594 309.963989 97.265594 309.954651 C 97.265076 309.925354 97.264526 309.892029 97.264526 309.861328 C 97.264526 309.857361 97.264008 309.842651 97.264008 309.838684 C 97.263611 309.76001 97.262543 309.681335 97.261993 309.604004 C 97.261993 309.600037 97.261993 309.59198 97.261993 309.588013 C 97.261475 309.55603 97.261475 309.521362 97.260925 309.489319 C 97.260925 309.47998 97.260925 309.463989 97.260406 309.454651 C 97.260406 309.429321 97.260406 309.400024 97.259857 309.375977 C 97.259857 309.361328 97.259857 309.345337 97.259857 309.332031 C 97.259857 309.306702 97.259338 309.283997 97.259338 309.258667 C 97.259338 309.245361 97.259338 309.228027 97.259338 309.213318 C 97.258789 309.192017 97.258789 309.16803 97.258789 309.145325 C 97.258789 309.127991 97.258789 309.114685 97.258392 309.096008 C 97.258392 309.073364 97.258392 309.052002 97.258392 309.029358 C 97.258392 309.015991 97.258392 308.99469 97.257874 308.981323 C 97.257874 308.958679 97.257874 308.936035 97.257874 308.91333 C 97.257874 308.895996 97.257874 308.884033 97.257874 308.865356 C 97.257874 308.84137 97.257874 308.818665 97.257324 308.793335 C 97.257324 308.780029 97.257324 308.76532 97.257324 308.750671 C 97.257324 308.723999 97.257324 308.701355 97.257324 308.67334 C 97.257324 308.659973 97.257324 308.649353 97.257324 308.634705 C 97.257324 308.597351 97.257324 308.558655 97.257324 308.52002 L 97.257324 308.52002 C 97.257324 308.484009 97.257324 308.447998 97.257324 308.410645 C 97.257324 308.397339 97.257324 308.389343 97.257324 308.375977 C 97.257324 308.350647 97.257324 308.325317 97.257324 308.299988 C 97.257324 308.286682 97.257324 308.273376 97.257324 308.26001 C 97.257324 308.237366 97.257874 308.213318 97.257874 308.190674 C 97.257874 308.176025 97.257874 308.161316 97.257874 308.14801 C 97.257874 308.124023 97.257874 308.102661 97.257874 308.080017 C 97.257874 308.06665 97.258392 308.052002 97.258392 308.038696 C 97.258392 308.017334 97.258392 307.990662 97.258392 307.96936 C 97.258392 307.955994 97.258392 307.942688 97.258789 307.927979 C 97.258789 307.905334 97.258789 307.88269 97.258789 307.858643 C 97.258789 307.845337 97.258789 307.833313 97.259338 307.820007 C 97.259338 307.797363 97.259338 307.772034 97.259338 307.749329 C 97.259338 307.73999 97.259857 307.718689 97.259857 307.709351 C 97.259857 307.686707 97.259857 307.661316 97.260406 307.638672 C 97.260406 307.629333 97.260406 307.612 97.260406 307.602661 C 97.260925 307.577332 97.260925 307.553345 97.261475 307.528015 C 97.261475 307.518677 97.261475 307.502686 97.261475 307.493347 C 97.261475 307.468018 97.261993 307.442688 97.261993 307.417358 C 97.261993 307.40802 97.262543 307.394653 97.262543 307.385315 C 97.262543 307.359985 97.263062 307.332031 97.263062 307.306702 C 97.263062 307.297363 97.263611 307.283997 97.263611 307.274658 C 97.263611 307.249329 97.264008 307.221375 97.264008 307.195984 C 97.264526 307.187988 97.264526 307.176025 97.264526 307.166687 C 97.265076 307.138672 97.265076 307.113342 97.265594 307.085327 C 97.265594 307.077332 97.265594 307.06665 97.265594 307.057373 C 97.266144 307.030701 97.266144 307.002686 97.266663 306.97467 C 97.267212 306.965332 97.267212 306.958679 97.267212 306.949341 C 97.267731 306.922668 97.267731 306.892029 97.26828 306.865356 C 97.26828 306.859985 97.268799 306.843994 97.268799 306.838684 C 97.268799 306.812012 97.269318 306.780029 97.269745 306.753357 C 97.269745 306.747986 97.269745 306.738708 97.269745 306.733337 C 97.270264 306.704041 97.270813 306.671997 97.271332 306.641357 C 97.271332 306.637329 97.271332 306.627991 97.271332 306.624023 C 97.2724 306.593323 97.272919 306.56134 97.272919 306.531982 C 97.273468 306.526672 97.273468 306.518677 97.273468 306.514648 C 97.273987 306.484009 97.274536 306.450684 97.275055 306.421326 C 97.275055 306.416016 97.275055 306.40802 97.275055 306.403992 C 97.275482 306.374695 97.276001 306.338684 97.27652 306.308044 C 97.277069 306.304016 97.277069 306.302673 97.277069 306.298645 C 97.277588 306.263977 97.278137 306.230652 97.279205 306.197327 L 97.279205 306.189331 C 97.279724 306.154663 97.280273 306.121338 97.281189 306.08667 L 97.281189 306.080017 C 97.281738 306.045349 97.282257 306.010681 97.283325 305.976013 L 97.283325 305.96936 C 98.04068 269.101318 115.161469 235.85199 142.345856 211.902649 C 157.624542 207.006653 174.042664 204.290649 191.149323 204.185303 L 191.156006 204.185303 C 191.186676 204.185303 191.217346 204.185303 191.249329 204.185303 C 191.253326 204.185303 191.261322 204.185303 191.266663 204.185303 C 191.385345 204.18396 191.503998 204.18396 191.621338 204.182678 C 191.64267 204.182678 191.656006 204.182678 191.675995 204.182678 C 191.693329 204.182678 191.712006 204.182678 191.72934 204.182678 C 191.749329 204.182678 191.769348 204.182678 191.789337 204.182678 C 191.806671 204.182678 191.822662 204.182678 191.839996 204.182678 C 191.859985 204.182678 191.885345 204.182678 191.905334 204.182678 C 191.921356 204.182678 191.937347 204.182678 191.951996 204.182678 C 191.977325 204.182678 191.998657 204.182678 192.024017 204.182678 C 192.037354 204.182678 192.050659 204.182678 192.063995 204.182678 C 192.100006 204.182678 192.140015 204.182678 192.175995 204.182678 L 192.175995 204.182678 L 406.497314 204.182678 C 488.885315 204.182678 555.671997 264.574646 555.671997 339.074707 C 555.671997 339.102661 555.671997 339.134705 555.671997 339.161316 C 555.670654 342.021362 555.557312 344.857361 555.361328 347.671997 C 533.200012 388.721313 489.364014 417.3172 435.463989 419.826538 C 435.458679 419.826538 435.461304 419.826538 435.455994 419.828125 C 435.377319 419.830688 435.305359 419.834961 435.226685 419.837463 C 435.217346 419.838501 435.210693 419.838501 435.200012 419.838501 C 435.127991 419.842651 435.06134 419.845337 434.987976 419.8479 C 434.973328 419.849487 434.968018 419.849487 434.953308 419.850586 C 434.932007 419.850586 434.91333 419.852173 434.891968 419.853088 C 434.877319 419.853088 434.858643 419.854675 434.843994 419.854675 C 434.81604 419.855713 434.785339 419.8573 434.757324 419.858765 C 434.742676 419.858765 434.721313 419.859863 434.706665 419.859863 C 434.689331 419.86145 434.66803 419.862549 434.651978 419.862549 C 434.635986 419.864014 434.614685 419.864014 434.599976 419.865112 C 434.580017 419.865112 434.565308 419.866699 434.544006 419.868286 C 434.514709 419.868286 434.492004 419.869385 434.462646 419.87085 C 434.447998 419.87085 434.427979 419.871887 434.41333 419.871887 C 434.393311 419.873474 434.374695 419.874512 434.354675 419.874512 C 434.34137 419.875977 434.325317 419.875977 434.310669 419.877075 C 434.281372 419.877075 434.246704 419.878662 434.216003 419.880249 C 434.206665 419.881226 434.190674 419.881226 434.179993 419.881226 C 434.159973 419.882813 434.130676 419.883911 434.110657 419.883911 C 434.096008 419.885498 434.08667 419.885498 434.072021 419.886414 C 434.042664 419.886414 434.007996 419.888 433.978699 419.889648 C 433.968018 419.889648 433.957336 419.890686 433.946655 419.890686 C 433.917297 419.892151 433.895996 419.892151 433.866699 419.893188 C 433.85199 419.894775 433.84668 419.894775 433.833313 419.894775 C 433.804016 419.895874 433.774658 419.897339 433.744019 419.898438 C 433.737366 419.898438 433.73468 419.898438 433.728027 419.898438 C 433.693359 419.900024 433.656006 419.901611 433.621338 419.90271 C 433.614685 419.90271 433.605347 419.90271 433.598694 419.904175 C 433.569336 419.904175 433.536011 419.905212 433.506653 419.906799 C 433.5 419.906799 433.49469 419.906799 433.487976 419.906799 C 433.447998 419.907837 433.41864 419.909302 433.380005 419.9104 C 433.373352 419.9104 433.369324 419.9104 433.362671 419.911987 C 433.332031 419.911987 433.298645 419.913574 433.268005 419.914551 C 433.261353 419.914551 433.254639 419.914551 433.248047 419.916138 C 433.212036 419.916138 433.17334 419.917236 433.137329 419.918823 C 433.134644 419.918823 433.133362 419.918823 433.129333 419.918823 C 433.094666 419.919739 433.064026 419.921326 433.029358 419.922424 C 433.022644 419.922424 433.013367 419.922424 433.006653 419.922424 C 432.937317 419.925476 432.856018 419.928101 432.786682 419.930664 C 432.783997 419.930664 432.772034 419.930664 432.768005 419.930664 C 432.694641 419.93335 432.618652 419.934937 432.544006 419.9375 C 432.540039 419.9375 432.538696 419.9375 432.534668 419.9375 C 432.49469 419.938538 432.463989 419.940186 432.425354 419.940186 L 432.419983 419.941223 C 432.340027 419.942688 432.266663 419.945313 432.187988 419.946899 C 432.18396 419.946899 432.182678 419.946899 432.178711 419.947876 C 432.098694 419.949463 432.028015 419.950562 431.949341 419.953064 C 431.945374 419.953064 431.942688 419.953064 431.93866 419.953064 C 431.858643 419.956299 431.787964 419.957336 431.708008 419.958801 L 431.701355 419.959839 C 431.58136 419.962524 431.468018 419.965088 431.348022 419.968262 L 431.345337 419.968262 C 431.266663 419.96936 431.190674 419.970825 431.110657 419.971863 L 431.105347 419.971863 C 430.746704 419.980286 430.391968 419.985474 430.031982 419.990662 C 430.028015 419.990662 430.031982 419.990662 430.028015 419.990662 C 429.947998 419.992126 429.872009 419.993164 429.791992 419.993164 C 429.789307 419.994812 429.790649 419.993164 429.786682 419.994812 C 429.746704 419.994812 429.710693 419.994812 429.670654 419.99585 L 429.670654 419.99585 C 429.590637 419.99585 429.513367 419.997314 429.43335 419.998413 L 429.427979 419.998413 C 429.348022 419.998413 429.277344 420 429.197327 420 C 429.190674 420 429.189331 420 429.182678 420 C 429.102661 420.001587 429.036011 420.001587 428.955994 420.002686 C 428.951965 420.002686 428.945374 420.002686 428.942688 420.002686 C 428.90802 420.002686 428.867981 420.002686 428.833313 420.002686 C 428.829346 420.002686 428.832031 420.002686 428.828003 420.002686 C 428.787964 420.00415 428.754639 420.00415 428.714661 420.00415 C 428.712036 420.00415 428.701355 420.00415 428.698669 420.00415 C 428.66803 420.00415 428.632019 420.00415 428.601318 420.00415 C 428.594666 420.00415 428.589355 420.00415 428.582703 420.00415 C 428.542664 420.005249 428.512024 420.005249 428.471985 420.005249 C 428.468018 420.005249 428.463989 420.005249 428.460022 420.005249 C 428.430664 420.005249 428.393311 420.005249 428.364014 420.005249 C 428.353333 420.005249 428.34668 420.005249 428.335999 420.005249 C 428.301331 420.005249 428.263977 420.005249 428.228027 420.006836 L 428.228027 472.525513 C 421.359985 473.431763 414.342651 473.925476 407.202698 473.954712 C 407.186646 473.95575 407.171997 473.95575 407.157349 473.95575 C 407.141357 473.95575 407.125305 473.95575 407.109375 473.95575 C 407.074707 473.95575 407.044006 473.95575 407.007996 473.95575 L 407.007996 487.609375"/>
            <path id="path42" fill="#ffffff" stroke="none" d="M 203.915985 285.948059 C 197.837311 279.776001 189.388 275.942688 180.040009 275.942688 C 161.536407 275.942688 146.538513 290.944031 146.538513 309.449341 L 146.538513 354.660034 L 165.7948 354.660034 L 165.7948 309.449341 C 165.7948 301.578674 172.171844 295.202698 180.040009 295.202698 C 187.90799 295.202698 194.283997 301.578674 194.283997 309.449341 L 194.283997 354.660034 L 213.541321 354.660034 L 213.541321 309.449341 C 213.541321 301.578674 219.921326 295.202698 227.785339 295.202698 C 235.657349 295.202698 242.033325 301.578674 242.033325 309.449341 L 242.033325 354.660034 L 261.291992 354.660034 L 261.291992 309.449341 C 261.291992 290.944031 246.293335 275.942688 227.785339 275.942688 C 218.445313 275.942688 209.992004 279.776001 203.915985 285.948059"/>
            <path id="path44" fill="#ffffff" stroke="none" d="M 287.865356 309.866699 C 289.577332 300.028015 295.422668 293.608032 304.406677 293.608032 C 313.530701 293.608032 319.238708 300.166687 320.522644 309.866699 Z M 340.613342 306.973328 C 338.73999 291.140015 327.335999 276.213318 304.406677 276.213318 C 282.159973 276.213318 266.61731 294.181335 266.61731 315.998657 L 266.61731 316.283997 C 266.61731 339.669373 283.58667 355.783997 306.546692 355.783997 C 320.37738 355.783997 330.645325 350.364014 337.773376 341.52002 L 325.372009 330.544006 C 319.37738 336.108032 314.104004 338.386658 306.832031 338.386658 C 297.130676 338.386658 290.290649 333.252014 288.149353 323.41333 L 326.460022 323.41333 C 338.73999 323.41333 342.050659 316.176025 340.613342 306.973328"/>
            <path id="path46" fill="#ffffff" stroke="none" d="M 366.283997 309.866699 C 367.996033 300.028015 373.84137 293.608032 382.829346 293.608032 C 391.953308 293.608032 397.658691 300.166687 398.941345 309.866699 Z M 419.033325 306.973328 C 417.157349 291.140015 405.755981 276.213318 382.829346 276.213318 C 360.580017 276.213318 345.041321 294.181335 345.041321 315.998657 L 345.041321 316.283997 C 345.041321 339.669373 362.006653 355.783997 384.966675 355.783997 C 398.798645 355.783997 409.065369 350.364014 416.195984 341.52002 L 403.788025 330.544006 C 397.798645 336.108032 392.522644 338.386658 385.249329 338.386658 C 375.553345 338.386658 368.710693 333.252014 366.569336 323.41333 L 404.87738 323.41333 C 417.158691 323.41333 420.47467 316.176025 419.033325 306.973328"/>
            <path id="path48" fill="#ffffff" stroke="none" d="M 444.705322 309.866699 C 446.416016 300.028015 452.266663 293.608032 461.248047 293.608032 C 470.376038 293.608032 476.080017 300.166687 477.3573 309.866699 Z M 497.451965 306.973328 C 495.580017 291.140015 484.177368 276.213318 461.248047 276.213318 C 439.004028 276.213318 423.457336 294.181335 423.457336 315.998657 L 423.457336 316.283997 C 423.457336 339.669373 440.427979 355.783997 463.389343 355.783997 C 477.216003 355.783997 487.482666 350.364014 494.614685 341.52002 L 482.213379 330.544006 C 476.218628 336.108032 470.942688 338.386658 463.670654 338.386658 C 453.973328 338.386658 447.127991 333.252014 444.987976 323.41333 L 483.298645 323.41333 C 495.582703 323.41333 498.891968 316.176025 497.451965 306.973328"/>
        </g>
    </g>
</svg>
