<?xml version="1.0" encoding="UTF-8" standalone="no"?>
<!-- Created with Inkscape (http://www.inkscape.org/) -->

<svg
   version="1.1"
   id="svg2"
   width="566.93335"
   height="391.77332"
   viewBox="0 0 566.93335 391.77332"
   xmlns:inkscape="http://www.inkscape.org/namespaces/inkscape"
   xmlns:sodipodi="http://sodipodi.sourceforge.net/DTD/sodipodi-0.dtd"
   xmlns="http://www.w3.org/2000/svg"
   xmlns:svg="http://www.w3.org/2000/svg">
  <defs
     id="defs6" />
  <sodipodi:namedview
     id="namedview4"
     pagecolor="#ffffff"
     bordercolor="#000000"
     borderopacity="0.25"
     inkscape:showpageshadow="2"
     inkscape:pageopacity="0.0"
     inkscape:pagecheckerboard="0"
     inkscape:deskcolor="#d1d1d1" />
  <g
     id="g8"
     inkscape:groupmode="layer"
     inkscape:label="ink_ext_XXXXXX"
     transform="matrix(1.3333333,0,0,-1.3333333,0,391.77333)">
    <g
       id="g10"
       transform="scale(0.1)">
      <path
         d="m 4050.72,2762.91 c -5.54,3.09 -14.41,4.64 -26.59,4.64 h -18.75 v -45.14 h 19.83 c 9.31,0 16.29,0.93 20.95,2.79 8.58,3.4 12.86,9.89 12.86,19.48 0,9.06 -2.76,15.14 -8.3,18.23 z m -23.7,19.64 c 15.46,0 26.79,-1.5 34,-4.48 12.88,-5.37 19.33,-15.9 19.33,-31.58 0,-11.14 -4.05,-19.33 -12.16,-24.6 -4.31,-2.78 -10.31,-4.8 -18.01,-6.03 9.74,-1.55 16.88,-5.62 21.38,-12.2 4.51,-6.6 6.78,-13.03 6.78,-19.3 v -9.12 c 0,-2.87 0.1,-5.96 0.31,-9.26 0.2,-3.28 0.56,-5.45 1.08,-6.48 l 0.77,-1.55 h -20.55 l -0.32,1.24 -0.31,1.38 -0.46,4 v 9.87 c 0,14.38 -3.91,23.88 -11.75,28.51 -4.63,2.67 -12.78,4.01 -24.42,4.01 h -17.31 v -49.01 h -21.96 v 124.6 z m -66.78,6.34 c -18.96,-19.07 -28.45,-42.1 -28.45,-69.1 0,-27.21 9.44,-50.4 28.29,-69.57 18.97,-19.16 42,-28.75 69.11,-28.75 27.09,0 50.12,9.59 69.09,28.75 18.96,19.17 28.44,42.36 28.44,69.57 0,27 -9.48,50.03 -28.44,69.1 -19.07,19.16 -42.1,28.75 -69.09,28.75 -26.91,0 -49.89,-9.59 -68.95,-28.75 z m 149.33,-149.49 c -22.16,-22.26 -48.96,-33.38 -80.38,-33.38 -31.44,0 -58.19,11.12 -80.24,33.38 -21.95,22.16 -32.92,49.01 -32.92,80.54 0,31.22 11.08,57.92 33.23,80.07 22.05,22.06 48.69,33.08 79.93,33.08 31.42,0 58.22,-11.02 80.38,-33.08 22.15,-22.05 33.23,-48.74 33.23,-80.07 0,-31.43 -11.08,-58.28 -33.23,-80.54"
         style="fill:#16aaea;fill-opacity:1;fill-rule:nonzero;stroke:none"
         id="path12" />
      <path
         d="m 2987.43,229.16 c -38.25,0 -76.77,15.199 -108.75,42.871 l -7.41,6.778 c 11.31,24.07 17.94,54.39 17.94,92.293 V 520.98 c 86.2,11.379 169.17,31.622 247.82,59.711 v -216.25 c 0,-74.722 -66.99,-135.281 -149.6,-135.281 m 519.5,568.129 c 192.69,169.742 317.92,401.781 335.88,660.191 75.67,140.19 117.63,299.79 117.63,469.08 0,283.96 -118.09,540.6 -315.32,724.34 360.38,-168.01 606.83,-507.87 606.83,-899.8 0,-440.24 -310.95,-814.729 -745.02,-953.811"
         style="fill:#16aaea;fill-opacity:1;fill-rule:nonzero;stroke:none"
         id="path14" />
      <path
         d="M 2730.06,194.371 V 407.93 l 141.21,-129.121 c -28.2,-60.028 -85.42,-81.227 -141.21,-84.438 M 116.391,1971.75 c 23.898,537.8 472.937,966.52 1074.089,966.52 h 1694.84 c 303.9,0 568.91,-109.54 759.8,-287.37 -153.41,71.52 -327.46,111.89 -511.95,111.89 H 1525.73 c -303.67,0 -579.089,-109.4 -780.671,-286.99 -274.75,-88.05 -500.207,-270.42 -628.668,-504.05"
         style="fill:#fbe205;fill-opacity:1;fill-rule:nonzero;stroke:none"
         id="path16" />
      <path
         d="M 2871.27,278.809 2730.06,407.93 v 102.402 c 0.26,0 0.51,0 0.76,0 0.12,0 0.25,0 0.36,0 0.11,0 0.22,0 0.34,0.008 53.53,0.219 106.19,3.84 157.69,10.64 V 371.102 c 0,-37.903 -6.63,-68.223 -17.94,-92.293 m 971.54,1178.671 c 1.47,21.11 2.22,42.37 2.23,63.81 0,0.22 0,0.43 0,0.65 v 0 0 c 0,558.75 -500.9,1011.69 -1118.81,1011.69 H 1118.82 v 0 c -0.28,0 -0.56,0 -0.84,0 -0.11,0 -0.19,0 -0.3,0 -0.18,0 -0.36,0 -0.54,0 -0.11,0 -0.23,0 -0.35,0 -0.16,0 -0.32,0 -0.49,0 -0.15,0 -0.23,0 -0.38,0 -0.15,0 -0.3,0 -0.45,0 -0.12,0 -0.28,0 -0.4,0 -0.13,0 -0.27,0 -0.41,0 -0.86,-0.01 -1.79,-0.01 -2.66,-0.02 -0.05,0 -0.09,0 -0.13,0 -0.27,0 -0.44,0 -0.7,0 -0.02,0 -0.03,0 -0.05,0 -128.319,-0.79 -251.456,-21.09 -366.061,-57.81 201.582,177.59 477.001,286.99 780.671,286.99 h 1607.44 c 184.49,0 358.54,-40.37 511.95,-111.89 197.23,-183.74 315.32,-440.38 315.32,-724.34 0,-169.29 -41.96,-328.89 -117.63,-469.08"
         style="fill:#029d4d;fill-opacity:1;fill-rule:nonzero;stroke:none"
         id="path18" />
      <path
         d="m 2580.51,0 c -38.24,0 -74.13,14.4922 -108.76,42.8906 L 1960.67,510.23 H 1118.82 C 500.938,510.23 0,963.148 0,1521.94 c 0,161.58 41.8945,314.32 116.391,449.81 -0.664,-14.98 -1,-30.05 -1,-45.19 0,-430.98 274.593,-799 683.711,-944.79 C 994.59,830.648 1248.39,739.371 1525.73,739.371 h 635.32 l 393.52,-458.57 c 78.03,-86.879 121.5,-86.879 159.74,-86.879 5.22,0 10.48,0.148 15.75,0.449 V 135.289 C 2730.06,60.5703 2663.11,0 2580.51,0"
         style="fill:#ed118d;fill-opacity:1;fill-rule:nonzero;stroke:none"
         id="path20" />
      <path
         d="m 2161.05,739.371 h -635.32 c -277.34,0 -531.14,91.277 -726.628,242.399 119.171,-42.469 249.748,-66.079 388.288,-66.899 0,0 0.02,0 0.03,0 0.23,0 0.45,0 0.67,0 0.08,0 0.14,0 0.22,0 0.19,0 0.4,0 0.59,0 0.1,0 0.18,-0.012 0.29,-0.012 0.18,0 0.34,0 0.53,0 0.12,0 0.23,0 0.35,0 0.15,0 0.33,0 0.48,0 0.13,0 0.28,0 0.41,0 0.11,0 0.33,0 0.45,0 0.15,0 0.28,0 0.44,0 0.15,-0.007 0.27,-0.007 0.42,-0.007 0.15,0 0.3,0 0.45,0 0.15,0 0.26,0 0.42,0 0.17,0 0.34,0 0.51,0 0.11,0 0.23,0 0.35,0 0.28,0 0.57,0 0.86,0 h 815.61 l 150.58,-175.481"
         style="fill:#232d5f;fill-opacity:1;fill-rule:nonzero;stroke:none"
         id="path22" />
      <path
         d="m 2714.31,193.922 c -38.24,0 -81.71,0 -159.74,86.879 l -393.52,458.57 h 206.54 L 2730.06,407.922 V 194.371 c -5.27,-0.301 -10.53,-0.449 -15.75,-0.449 M 799.102,981.77 c -409.118,145.79 -683.711,513.81 -683.711,944.79 0,15.14 0.336,30.21 1,45.19 128.461,233.63 353.918,416 628.668,504.05 -203.914,-179.64 -332.274,-429.01 -337.934,-705.57 0,-0.02 0,-0.03 0,-0.05 -0.008,-0.27 -0.012,-0.5 -0.016,-0.78 0,-0.01 0,-0.03 0,-0.05 -0.007,-0.27 -0.011,-0.5 -0.015,-0.77 0,-0.02 0,-0.04 0,-0.06 -0.008,-0.27 -0.012,-0.49 -0.016,-0.76 0,-0.03 0,-0.04 -0.004,-0.07 -0.004,-0.24 -0.008,-0.48 -0.011,-0.72 0,-0.05 0,-0.08 0,-0.13 -0.004,-0.24 -0.008,-0.46 -0.012,-0.7 0,-0.05 0,-0.07 -0.004,-0.13 -0.004,-0.23 -0.004,-0.45 -0.012,-0.69 0,-0.05 0,-0.08 0,-0.13 -0.004,-0.24 -0.008,-0.45 -0.012,-0.69 0,-0.05 0,-0.09 0,-0.15 -0.003,-0.23 -0.007,-0.41 -0.007,-0.64 -0.004,-0.07 -0.004,-0.13 -0.004,-0.2 -0.004,-0.23 -0.004,-0.39 -0.008,-0.63 0,-0.07 0,-0.12 -0.004,-0.19 -0.004,-0.21 -0.004,-0.42 -0.008,-0.62 0,-0.07 0,-0.14 0,-0.21 -0.004,-0.21 -0.004,-0.4 -0.008,-0.61 0,-0.07 0,-0.16 -0.004,-0.22 0,-0.21 -0.003,-0.39 -0.003,-0.59 0,-0.09 -0.004,-0.15 -0.004,-0.24 0,-0.21 -0.004,-0.39 -0.004,-0.59 0,-0.09 -0.004,-0.15 -0.004,-0.24 0,-0.2 0,-0.37 -0.004,-0.57 0,-0.09 0,-0.17 0,-0.26 -0.004,-0.2 -0.004,-0.36 -0.008,-0.56 0,-0.09 0,-0.18 0,-0.27 -0.004,-0.2 -0.004,-0.33 -0.004,-0.53 0,-0.11 0,-0.19 -0.004,-0.3 0,-0.2 0,-0.32 0,-0.53 -0.004,-0.1 -0.004,-0.19 -0.004,-0.29 0,-0.18 0,-0.35 0,-0.52 -0.003,-0.11 -0.003,-0.21 -0.003,-0.31 0,-0.17 0,-0.35 0,-0.52 0,-0.1 -0.004,-0.21 -0.004,-0.31 0,-0.17 0,-0.34 0,-0.51 0,-0.1 0,-0.21 0,-0.32 0,-0.17 -0.004,-0.35 -0.004,-0.52 0,-0.11 0,-0.2 0,-0.3 0,-0.17 0,-0.4 0,-0.57 0,-0.09 0,-0.17 0,-0.26 0,-0.27 0,-0.55 0,-0.82 v 0 0 0 c 0,-0.28 0,-0.59 0,-0.86 0,-0.1 0,-0.2 0,-0.29 0,-0.21 0,-0.38 0,-0.58 0,-0.1 0,-0.23 0,-0.32 0.004,-0.17 0.004,-0.37 0.004,-0.54 0,-0.12 0,-0.25 0,-0.36 0,-0.17 0,-0.34 0,-0.51 0.004,-0.13 0.004,-0.23 0.004,-0.36 0,-0.17 0,-0.33 0,-0.5 0.003,-0.11 0.003,-0.26 0.003,-0.37 0,-0.17 0,-0.34 0.004,-0.51 0,-0.12 0,-0.23 0,-0.34 0,-0.21 0.004,-0.34 0.004,-0.55 0,-0.11 0,-0.21 0,-0.33 0.004,-0.2 0.004,-0.38 0.004,-0.59 0.004,-0.09 0.004,-0.16 0.004,-0.26 0.004,-0.23 0.004,-0.5 0.008,-0.74 0,-0.04 0,-0.08 0,-0.12 0.004,-0.61 0.012,-1.14 0.015,-1.76 0,-0.07 0,-0.1 0.004,-0.17 0,-0.24 0.004,-0.46 0.008,-0.7 0,-0.08 0,-0.14 0,-0.22 0.004,-0.24 0.004,-0.41 0.008,-0.64 0.004,-0.1 0.004,-0.17 0.004,-0.27 0.004,-0.2 0.008,-0.4 0.008,-0.6 0.004,-0.1 0.004,-0.19 0.004,-0.29 0.004,-0.2 0.007,-0.38 0.007,-0.59 0.004,-0.09 0.004,-0.18 0.004,-0.27 0.004,-0.24 0.008,-0.4 0.012,-0.64 0,-0.05 0.004,-0.16 0.004,-0.22 0.004,-0.24 0.004,-0.44 0.008,-0.68 0.004,-0.05 0.004,-0.13 0.004,-0.19 0.004,-0.27 0.008,-0.49 0.011,-0.76 0.004,-0.02 0.004,-0.08 0.004,-0.1 0.016,-0.88 0.032,-1.79 0.051,-2.68 v -0.01 c 0.008,-0.3 0.012,-0.55 0.02,-0.86 0,-0.02 0,-0.08 0,-0.09 0.004,-0.24 0.011,-0.56 0.015,-0.79 0.004,-0.04 0.004,-0.07 0.004,-0.11 0.004,-0.27 0.012,-0.52 0.02,-0.79 0,-0.04 0,-0.05 0,-0.09 0.008,-0.27 0.011,-0.53 0.019,-0.8 0,-0.04 0,-0.05 0,-0.09 0.008,-0.27 0.016,-0.56 0.024,-0.83 v -0.04 c 7.48,-298.53 157.929,-565.06 391.879,-745.92"
         style="fill:#ee2325;fill-opacity:1;fill-rule:nonzero;stroke:none"
         id="path24" />
      <path
         d="m 2730.82,510.332 c 0.12,0 0.24,0 0.36,0 -0.11,0 -0.24,0 -0.36,0 M 1194,914.852 c -0.12,0 -0.24,0 -0.35,0 0.12,0 0.22,0 0.35,0 m -0.86,0 c -0.16,0 -0.27,0 -0.42,0 0.14,0 0.28,0 0.42,0 m -0.87,0 c -0.15,0 -0.27,0 -0.42,0.007 0.14,-0.007 0.28,-0.007 0.42,-0.007 m -0.86,0.007 c -0.12,0 -0.34,0 -0.45,0 0.15,0 0.3,0 0.45,0 m -0.86,0 c -0.15,0 -0.33,0 -0.48,0 0.17,0 0.32,0 0.48,0 m -0.83,0 c -0.19,0 -0.35,0 -0.53,0 0.17,0 0.35,0 0.53,0 m -0.82,0.012 c -0.19,0 -0.4,0 -0.59,0 0.19,0 0.4,0 0.59,0 m -0.81,0 c -0.22,0 -0.44,0 -0.67,0 0.23,0 0.45,0 0.67,0 m -0.7,0 c -138.54,0.82 -269.117,24.43 -388.288,66.899 -233.95,180.86 -384.399,447.39 -391.879,745.92 7.492,-298.49 157.968,-564.99 391.875,-745.838 119.175,-42.481 249.732,-66.153 388.292,-66.981 M 407.223,1727.73 c -0.008,0.27 -0.016,0.56 -0.024,0.83 0.008,-0.28 0.016,-0.55 0.024,-0.83 m -0.024,0.92 c -0.008,0.27 -0.011,0.53 -0.019,0.8 0.008,-0.26 0.011,-0.54 0.019,-0.8 m -0.019,0.89 c -0.008,0.27 -0.016,0.52 -0.02,0.79 0.004,-0.26 0.012,-0.53 0.02,-0.79 m -0.024,0.9 c -0.004,0.23 -0.011,0.55 -0.015,0.79 0.004,-0.27 0.011,-0.53 0.015,-0.79 m -0.015,0.88 c -0.008,0.31 -0.012,0.56 -0.02,0.86 0.008,-0.3 0.012,-0.56 0.02,-0.86 m -0.02,0.87 c -0.019,0.89 -0.035,1.8 -0.051,2.68 0.016,-0.9 0.032,-1.78 0.051,-2.68 m -0.055,2.78 c -0.003,0.27 -0.007,0.49 -0.011,0.76 0.004,-0.26 0.008,-0.5 0.011,-0.76 m -0.015,0.95 c -0.004,0.24 -0.004,0.44 -0.008,0.68 0.004,-0.24 0.004,-0.43 0.008,-0.68 m -0.012,0.9 c -0.004,0.24 -0.008,0.4 -0.012,0.64 0.004,-0.22 0.008,-0.41 0.012,-0.64 m -0.016,0.91 c 0,0.21 -0.003,0.39 -0.007,0.59 0.004,-0.18 0.007,-0.4 0.007,-0.59 m -0.011,0.88 c 0,0.2 -0.004,0.4 -0.008,0.6 0.004,-0.2 0.008,-0.4 0.008,-0.6 m -0.012,0.87 c -0.004,0.23 -0.004,0.4 -0.008,0.64 0.004,-0.21 0.008,-0.44 0.008,-0.64 m -0.008,0.86 c -0.004,0.24 -0.008,0.46 -0.008,0.7 0,-0.23 0.004,-0.48 0.008,-0.7 m -0.012,0.87 c -0.003,0.62 -0.011,1.15 -0.015,1.76 0.004,-0.58 0.012,-1.17 0.015,-1.76 m -0.015,1.88 c -0.004,0.24 -0.004,0.51 -0.008,0.74 0.004,-0.24 0.004,-0.5 0.008,-0.74 m -0.012,1 c 0,0.21 0,0.39 -0.004,0.59 0.004,-0.18 0.004,-0.4 0.004,-0.59 m -0.004,0.92 c 0,0.21 -0.004,0.34 -0.004,0.55 0,-0.19 0.004,-0.36 0.004,-0.55 m -0.004,0.89 c -0.004,0.17 -0.004,0.34 -0.004,0.51 0,-0.17 0,-0.35 0.004,-0.51 m -0.007,0.88 c 0,0.17 0,0.33 0,0.5 0,-0.17 0,-0.33 0,-0.5 m -0.004,0.86 c 0,0.17 0,0.34 0,0.51 0,-0.17 0,-0.34 0,-0.51 m 0,0.87 c 0,0.17 0,0.37 -0.004,0.54 0.004,-0.19 0.004,-0.36 0.004,-0.54 m -0.004,0.86 c 0,0.2 0,0.37 0,0.58 0,-0.21 0,-0.38 0,-0.58 m 0,0.87 c 0,0.27 0,0.58 0,0.86 0,-0.29 0,-0.58 0,-0.86 m 0,0.86 v 0 c 0,0.27 0,0.55 0,0.82 0,-0.28 0,-0.55 0,-0.82 m 0,1.08 c 0,0.17 0,0.4 0,0.57 0,-0.19 0,-0.38 0,-0.57 m 0,0.87 c 0,0.17 0.004,0.35 0.004,0.52 0,-0.17 -0.004,-0.35 -0.004,-0.52 m 0.004,0.84 c 0,0.17 0,0.34 0,0.51 0,-0.17 0,-0.33 0,-0.51 m 0.004,0.82 c 0,0.17 0,0.35 0,0.52 0,-0.16 0,-0.36 0,-0.52 m 0.003,0.83 c 0,0.17 0,0.34 0,0.52 0,-0.18 0,-0.35 0,-0.52 m 0.004,0.81 c 0,0.21 0,0.33 0,0.53 0,-0.17 0,-0.36 0,-0.53 m 0.004,0.83 c 0,0.2 0,0.33 0.004,0.53 -0.004,-0.17 -0.004,-0.36 -0.004,-0.53 m 0.004,0.8 c 0.004,0.2 0.004,0.36 0.008,0.56 -0.004,-0.19 -0.004,-0.37 -0.008,-0.56 m 0.008,0.82 c 0.004,0.2 0.004,0.37 0.004,0.57 0,-0.19 -0.004,-0.38 -0.004,-0.57 m 0.008,0.81 c 0,0.2 0.004,0.38 0.004,0.59 0,-0.19 -0.004,-0.4 -0.004,-0.59 m 0.008,0.83 c 0,0.2 0.003,0.38 0.003,0.59 0,-0.19 -0.003,-0.4 -0.003,-0.59 m 0.007,0.81 c 0.004,0.21 0.004,0.4 0.008,0.61 -0.004,-0.21 -0.004,-0.4 -0.008,-0.61 m 0.008,0.82 c 0.004,0.2 0.004,0.41 0.008,0.62 -0.004,-0.21 -0.004,-0.42 -0.008,-0.62 m 0.012,0.81 c 0.004,0.24 0.004,0.4 0.008,0.63 -0.004,-0.2 -0.004,-0.43 -0.008,-0.63 m 0.012,0.83 c 0,0.23 0.004,0.41 0.007,0.64 -0.003,-0.2 -0.007,-0.44 -0.007,-0.64 m 0.007,0.79 c 0.004,0.24 0.008,0.45 0.012,0.69 -0.004,-0.23 -0.008,-0.47 -0.012,-0.69 m 0.012,0.82 c 0.008,0.24 0.008,0.46 0.012,0.69 0,-0.22 -0.004,-0.46 -0.012,-0.69 m 0.016,0.82 c 0.004,0.24 0.008,0.46 0.012,0.7 -0.004,-0.22 -0.008,-0.47 -0.012,-0.7 m 0.012,0.83 c 0.003,0.24 0.007,0.48 0.011,0.72 -0.004,-0.23 -0.008,-0.5 -0.011,-0.72 m 0.015,0.79 c 0.004,0.27 0.008,0.49 0.016,0.76 -0.008,-0.25 -0.012,-0.5 -0.016,-0.76 m 0.016,0.82 c 0.004,0.27 0.008,0.5 0.015,0.77 -0.007,-0.26 -0.011,-0.51 -0.015,-0.77 m 0.015,0.82 c 0.004,0.28 0.008,0.51 0.016,0.78 -0.008,-0.26 -0.012,-0.52 -0.016,-0.78 m 0.016,0.83 c 5.66,276.56 134.02,525.93 337.934,705.57 114.605,36.72 237.742,57.02 366.061,57.81 -128.3,-0.79 -251.436,-21.16 -366.026,-57.88 -203.883,-179.62 -332.289,-428.99 -337.969,-705.5"
         style="fill:#050707;fill-opacity:1;fill-rule:nonzero;stroke:none"
         id="path26" />
      <path
         d="M 3137.03,580.691 V 739.48 c 129.69,0.391 254.16,20.731 369.9,57.809 -105.31,-92.758 -230.8,-166.93 -369.9,-216.598"
         style="fill:#ed118d;fill-opacity:1;fill-rule:nonzero;stroke:none"
         id="path28" />
      <path
         d="m 2889.21,520.98 v 393.969 c 0.27,0.012 0.55,0.012 0.81,0.012 0.08,0 0.13,0 0.21,0 0.23,0 0.49,0 0.72,0 0.04,0 0.05,0 0.09,0 0.29,0 0.54,0 0.83,0.008 0.04,0 0.1,0 0.14,0 0.24,0 0.49,0 0.73,0 0.03,0 0.09,0 0.12,0 0.29,0 0.57,0 0.85,0.011 h 0.04 c 0.26,0 0.56,0 0.82,0 0.04,0 0.06,0 0.1,0 0.57,0.008 1.13,0.008 1.7,0.02 h 0.11 c 0.58,0 1.16,0.012 1.73,0.012 h 0.04 c 0.6,0.008 1.18,0.019 1.78,0.019 v 0 c 0.29,0.008 0.59,0.008 0.87,0.008 l 0.04,0.012 c 0.58,0 1.2,0.008 1.77,0.019 h 0.03 c 2.69,0.039 5.37,0.078 8.05,0.141 h 0.04 c 0.6,0.008 1.16,0.019 1.76,0.027 h 0.02 c 0.89,0.024 1.77,0.043 2.65,0.063 l 0.05,0.008 c 0.6,0.011 1.13,0.019 1.73,0.043 h 0.08 c 0.57,0.007 1.15,0.027 1.72,0.039 l 0.07,0.007 c 0.57,0.012 1.17,0.032 1.74,0.043 l 0.04,0.008 c 0.28,0 0.53,0.012 0.82,0.02 h 0.07 c 0.57,0.019 1.11,0.031 1.68,0.051 0.08,0 0.07,0 0.14,0 0.57,0.019 1.08,0.039 1.65,0.062 0.07,0 0.09,0 0.17,0 0.23,0.008 0.52,0.02 0.75,0.027 h 0.06 c 0.29,0.012 0.54,0.012 0.83,0.02 0.07,0.012 0.08,0.012 0.15,0.012 0.24,0.007 0.47,0.019 0.71,0.019 0.03,0 0.09,0.012 0.13,0.012 0.26,0.008 0.55,0.019 0.81,0.027 0.03,0 0.1,0 0.14,0 0.23,0.012 0.46,0.02 0.69,0.02 0.08,0.011 0.1,0.011 0.17,0.011 0.26,0.008 0.54,0.02 0.8,0.032 0.04,0 0.09,0 0.12,0 0.21,0.008 0.46,0.019 0.67,0.027 0.07,0 0.17,0 0.25,0.012 0.18,0 0.42,0.008 0.6,0.019 0.07,0 0.16,0.008 0.24,0.008 0.23,0.012 0.47,0.024 0.7,0.024 0.11,0.007 0.18,0.007 0.29,0.019 0.18,0 0.34,0.008 0.52,0.02 0.11,0 0.16,0 0.27,0.007 0.26,0.012 0.46,0.012 0.71,0.024 0.12,0.008 0.22,0.008 0.33,0.019 0.15,0 0.29,0.008 0.44,0.02 0.11,0 0.26,0.008 0.37,0.008 0.2,0.011 0.41,0.019 0.61,0.019 0.15,0.012 0.27,0.024 0.42,0.024 0.13,0.008 0.26,0.008 0.39,0.019 0.14,0 0.26,0.008 0.41,0.02 0.13,0 0.25,0.008 0.38,0.008 0.22,0.011 0.43,0.023 0.65,0.031 0.13,0 0.24,0.012 0.36,0.012 0.15,0.007 0.31,0.019 0.46,0.019 0.07,0.008 0.19,0.008 0.26,0.02 0.52,0.019 1.08,0.039 1.59,0.07 0.06,0 0.15,0 0.2,0.008 0.56,0.019 1.16,0.051 1.72,0.07 l 0.06,0.012 c 404.29,18.828 733.14,233.259 899.33,541.179 -17.96,-258.41 -143.19,-490.449 -335.88,-660.191 -115.74,-37.078 -240.21,-57.418 -369.9,-57.809 V 580.691 c -78.65,-28.089 -161.62,-48.332 -247.82,-59.711"
         style="fill:#232d5f;fill-opacity:1;fill-rule:nonzero;stroke:none"
         id="path30" />
      <path
         d="m 2731.52,510.34 c 53.55,0.219 106.18,3.922 157.69,10.719 v -0.079 c -51.5,-6.8 -104.16,-10.421 -157.69,-10.64 m 158.5,404.621 c 0.08,0 0.13,0 0.21,0 -0.08,0 -0.13,0 -0.21,0 m 0.93,0 c 0.03,0 0.06,0 0.09,0 -0.04,0 -0.05,0 -0.09,0 m 0.92,0.008 c 0.05,0 0.09,0 0.14,0 -0.04,0 -0.1,0 -0.14,0 m 0.87,0 c 0.02,0 0.1,0 0.12,0 -0.03,0 -0.09,0 -0.12,0 m 0.97,0.011 c 0.03,0 0.01,0 0.04,0 h -0.04 m 0.86,0 c 0.02,0 0.07,0 0.1,0 -0.04,0 -0.06,0 -0.1,0 m 1.8,0.02 c 0.05,0 0.06,0 0.11,0 h -0.11 m 1.84,0.012 h 0.04 -0.04 m 1.82,0.019 v 0 0 m 0.87,0.008 c 0.03,0.012 0.02,0 0.04,0.012 l -0.04,-0.012 m 1.81,0.031 c 0.03,0 0,0 0.03,0 h -0.03 m 8.08,0.141 h 0.04 -0.04 m 1.8,0.027 h 0.02 -0.02 m 2.67,0.063 0.05,0.008 -0.05,-0.008 m 1.78,0.051 c 0.03,0 0.05,0 0.08,0 h -0.08 m 1.8,0.039 c 0.03,0.007 0.04,0.007 0.07,0.007 l -0.07,-0.007 m 1.81,0.05 0.04,0.008 -0.04,-0.008 m 0.86,0.028 c 0.03,0 0.04,0 0.07,0 h -0.07 m 1.75,0.051 c 0.03,0 0.12,0 0.14,0 -0.07,0 -0.06,0 -0.14,0 m 1.79,0.062 c 0.05,0 0.12,0 0.17,0 -0.08,0 -0.1,0 -0.17,0 m 0.92,0.027 c 0.03,0 0.04,0 0.06,0 h -0.06 m 0.89,0.02 c 0.05,0.012 0.1,0.012 0.15,0.012 -0.07,0 -0.08,0 -0.15,-0.012 m 0.86,0.031 c 0.05,0.012 0.08,0.012 0.13,0.012 -0.04,0 -0.1,-0.012 -0.13,-0.012 m 0.94,0.039 c 0.05,0 0.09,0 0.14,0 -0.04,0 -0.11,0 -0.14,0 m 0.83,0.02 c 0.05,0.011 0.12,0.011 0.17,0.011 -0.07,0 -0.09,0 -0.17,-0.011 m 0.97,0.043 c 0.05,0 0.07,0 0.12,0 -0.03,0 -0.08,0 -0.12,0 m 0.79,0.027 c 0.1,0 0.14,0 0.25,0.012 -0.08,-0.012 -0.18,-0.012 -0.25,-0.012 m 0.85,0.031 c 0.08,0 0.16,0.008 0.24,0.008 -0.08,0 -0.17,-0.008 -0.24,-0.008 m 0.94,0.032 c 0.11,0.007 0.18,0.007 0.29,0.019 -0.11,-0.012 -0.18,-0.012 -0.29,-0.019 m 0.81,0.039 c 0.08,0 0.2,0 0.27,0.007 -0.11,-0.007 -0.16,-0.007 -0.27,-0.007 m 0.98,0.031 c 0.11,0.008 0.23,0.008 0.33,0.019 -0.11,-0.011 -0.21,-0.011 -0.33,-0.019 m 0.77,0.039 c 0.11,0 0.26,0.008 0.37,0.008 -0.11,0 -0.26,-0.008 -0.37,-0.008 m 0.98,0.027 c 0.16,0.012 0.27,0.024 0.42,0.024 -0.15,0 -0.27,-0.012 -0.42,-0.024 m 0.81,0.043 c 0.12,0 0.28,0.008 0.41,0.02 -0.15,-0.012 -0.27,-0.02 -0.41,-0.02 m 0.79,0.028 c 0.21,0.011 0.44,0.023 0.65,0.031 -0.22,-0.008 -0.43,-0.02 -0.65,-0.031 m 1.01,0.043 c 0.16,0.007 0.3,0.019 0.46,0.019 -0.15,0 -0.31,-0.012 -0.46,-0.019 m 0.72,0.039 c 0.55,0.019 1.05,0.039 1.59,0.07 -0.51,-0.031 -1.07,-0.051 -1.59,-0.07 m 1.79,0.078 c 0.59,0.019 1.13,0.051 1.72,0.07 -0.56,-0.019 -1.16,-0.051 -1.72,-0.07 m 1.78,0.082 c 404.25,18.82 733.02,233.289 899.23,541.159 1.47,21.11 2.32,42.38 2.33,63.83 -0.01,-21.44 -0.76,-42.7 -2.23,-63.81 C 3676.62,1149.56 3347.77,935.129 2943.48,916.301 M 1111.17,2533.61 c 0.26,0 0.43,0 0.7,0 -0.24,0 -0.47,0 -0.7,0 m 0.83,0 c 0.87,0.01 1.8,0.01 2.66,0.02 -0.88,-0.01 -1.77,-0.01 -2.66,-0.02 m 3.07,0.02 c 0.12,0 0.28,0 0.4,0 -0.13,0 -0.27,0 -0.4,0 m 0.85,0 c 0.15,0 0.23,0 0.38,0 -0.13,0 -0.25,0 -0.38,0 m 0.87,0 c 0.12,0 0.24,0 0.35,0 -0.11,0 -0.23,0 -0.35,0 m 0.89,0 c 0.11,0 0.19,0 0.3,0 -0.1,0 -0.2,0 -0.3,0"
         style="fill:#050707;fill-opacity:1;fill-rule:nonzero;stroke:none"
         id="path32" />
      <path
         d="m 2730.06,407.93 v 0 102.402 c 0.27,0 0.5,0 0.76,0 -0.25,0 -0.5,0 -0.76,0 V 407.93 m 1.12,102.402 c 0.11,0 0.22,0 0.34,0.008 -0.12,-0.008 -0.23,-0.008 -0.34,-0.008 M 3845.04,1521.29 c 0,0.2 0,0.44 0,0.65 v 0 c 0,-0.22 0,-0.43 0,-0.65 M 1111.12,2533.61 c 0.02,0 0.03,0 0.05,0 h -0.05 m 0.75,0 c 0.04,0 0.08,0 0.13,0 -0.04,0 -0.1,0 -0.13,0 m 2.79,0.02 c 0.14,0 0.28,0 0.41,0 -0.15,0 -0.25,0 -0.41,0 m 0.81,0 c 0.15,0 0.3,0 0.45,0 -0.15,0 -0.3,0 -0.45,0 m 0.83,0 c 0.17,0 0.33,0 0.49,0 -0.15,0 -0.34,0 -0.49,0 m 0.84,0 c 0.18,0 0.36,0 0.54,0 -0.19,0 -0.35,0 -0.54,0 m 0.84,0 c 0.28,0 0.56,0 0.84,0 -0.27,0 -0.57,0 -0.84,0"
         style="fill:#0a0e0d;fill-opacity:1;fill-rule:nonzero;stroke:none"
         id="path34" />
      <path
         d="m 2889.21,521.059 v 393.89 c 0.27,0.012 0.55,0.012 0.81,0.012 -0.26,0 -0.54,0 -0.81,-0.012 v -393.89 0 m -728.16,218.312 v 0 l -150.58,175.481 h -815.61 c -0.29,0 -0.58,0 -0.86,0 0.3,0 0.56,0 0.86,0 h 815.61 l 150.58,-175.481 m -967.4,175.481 c -0.17,0 -0.34,0 -0.51,0 0.15,0 0.36,0 0.51,0 m -0.93,0 c -0.15,0 -0.3,0 -0.45,0 0.15,0 0.3,0 0.45,0 m -0.87,0.007 c -0.16,0 -0.29,0 -0.44,0 0.15,0 0.29,0 0.44,0 m -0.89,0 c -0.13,0 -0.28,0 -0.41,0 0.16,0 0.26,0 0.41,0 m -0.89,0 c -0.12,0 -0.23,0 -0.35,0 0.11,0 0.24,0 0.35,0 m -0.88,0 c -0.11,0 -0.19,0.012 -0.29,0.012 0.11,0 0.17,-0.012 0.29,-0.012 m -0.88,0.012 c -0.08,0 -0.14,0 -0.22,0 0.08,0 0.15,0 0.22,0 m -0.89,0 c -0.01,0 -0.03,0 -0.03,0 h 0.03 m 1702.81,0.09 c 0.22,0 0.5,0 0.72,0 -0.23,0 -0.49,0 -0.72,0 m 0.81,0 c 0.3,0 0.53,0 0.83,0.008 -0.29,-0.008 -0.54,-0.008 -0.83,-0.008 m 0.97,0.008 c 0.23,0 0.5,0 0.73,0 -0.24,0 -0.49,0 -0.73,0 m 0.85,0 c 0.3,0 0.55,0 0.85,0.011 -0.28,-0.011 -0.56,-0.011 -0.85,-0.011 m 0.89,0.011 c 0.26,0 0.56,0 0.82,0 -0.26,0 -0.56,0 -0.82,0 m 0.92,0 c 0.6,0.008 1.1,0.008 1.7,0.02 -0.57,-0.012 -1.13,-0.012 -1.7,-0.02 m 1.81,0.02 c 0.6,0 1.13,0.012 1.73,0.012 -0.57,0 -1.15,-0.012 -1.73,-0.012 m 1.77,0.012 c 0.6,0.008 1.18,0.019 1.78,0.019 -0.6,0 -1.18,-0.011 -1.78,-0.019 m 1.78,0.019 c 0.3,0.008 0.57,0.008 0.87,0.008 -0.28,0 -0.58,0 -0.87,-0.008 m 0.91,0.02 c 0.6,0 1.17,0.008 1.77,0.019 -0.57,-0.011 -1.19,-0.019 -1.77,-0.019 m 1.8,0.019 c 2.7,0.039 5.36,0.078 8.05,0.141 -2.68,-0.063 -5.36,-0.102 -8.05,-0.141 m 8.09,0.141 c 0.6,0.008 1.17,0.019 1.76,0.027 -0.6,-0.008 -1.16,-0.019 -1.76,-0.027 m 1.78,0.027 c 0.9,0.024 1.75,0.043 2.65,0.063 -0.88,-0.02 -1.76,-0.039 -2.65,-0.063 m 2.7,0.071 c 0.6,0.011 1.13,0.019 1.73,0.043 -0.6,-0.024 -1.13,-0.032 -1.73,-0.043 m 1.81,0.043 c 0.59,0.019 1.12,0.027 1.72,0.039 -0.57,-0.012 -1.15,-0.032 -1.72,-0.039 m 1.79,0.046 c 0.59,0.012 1.14,0.032 1.74,0.043 -0.57,-0.011 -1.17,-0.031 -1.74,-0.043 m 1.78,0.051 c 0.29,0 0.52,0.012 0.82,0.02 -0.29,-0.008 -0.54,-0.02 -0.82,-0.02 m 0.89,0.02 c 0.56,0.019 1.13,0.031 1.68,0.051 -0.57,-0.02 -1.11,-0.032 -1.68,-0.051 m 1.82,0.051 c 0.52,0.019 1.13,0.039 1.65,0.062 -0.57,-0.023 -1.08,-0.043 -1.65,-0.062 m 1.82,0.062 c 0.26,0.008 0.49,0.02 0.75,0.027 -0.23,-0.007 -0.52,-0.019 -0.75,-0.027 m 0.81,0.027 c 0.27,0.012 0.56,0.02 0.83,0.02 -0.29,-0.008 -0.54,-0.008 -0.83,-0.02 m 0.98,0.032 c 0.23,0.007 0.48,0.019 0.71,0.019 -0.24,0 -0.47,-0.012 -0.71,-0.019 m 0.84,0.031 c 0.29,0.008 0.51,0.019 0.81,0.027 -0.26,-0.008 -0.55,-0.019 -0.81,-0.027 m 0.95,0.027 c 0.22,0.012 0.47,0.02 0.69,0.02 -0.23,0 -0.46,-0.008 -0.69,-0.02 m 0.86,0.031 c 0.26,0.008 0.54,0.02 0.8,0.032 -0.26,-0.012 -0.54,-0.024 -0.8,-0.032 m 0.92,0.032 c 0.23,0.008 0.45,0.019 0.67,0.027 -0.21,-0.008 -0.46,-0.019 -0.67,-0.027 m 0.92,0.039 c 0.22,0.008 0.38,0.008 0.6,0.019 -0.18,-0.011 -0.42,-0.019 -0.6,-0.019 m 0.84,0.027 c 0.22,0.012 0.48,0.024 0.7,0.024 -0.23,0 -0.47,-0.012 -0.7,-0.024 m 0.99,0.043 c 0.15,0 0.37,0.008 0.52,0.02 -0.18,-0.012 -0.34,-0.02 -0.52,-0.02 m 0.79,0.027 c 0.23,0.012 0.49,0.024 0.71,0.024 -0.25,-0.012 -0.45,-0.012 -0.71,-0.024 m 1.04,0.043 c 0.15,0 0.29,0.008 0.44,0.02 -0.15,-0.012 -0.29,-0.02 -0.44,-0.02 m 0.81,0.028 c 0.22,0.011 0.39,0.019 0.61,0.019 -0.2,0 -0.41,-0.008 -0.61,-0.019 m 1.03,0.043 c 0.11,0.008 0.27,0.008 0.39,0.019 -0.13,-0.011 -0.26,-0.011 -0.39,-0.019 m 0.8,0.039 c 0.11,0 0.27,0.008 0.38,0.008 -0.13,0 -0.25,-0.008 -0.38,-0.008 m 1.03,0.039 c 0.11,0 0.25,0.012 0.36,0.012 -0.12,0 -0.23,-0.012 -0.36,-0.012 m 0.82,0.031 c 0.11,0.008 0.15,0.008 0.26,0.02 -0.07,-0.012 -0.19,-0.012 -0.26,-0.02 m 1.85,0.09 c 0.08,0 0.13,0 0.2,0.008 -0.05,-0.008 -0.14,-0.008 -0.2,-0.008 m 1.92,0.078 c 0.04,0.012 0.02,0.012 0.06,0.012 l -0.06,-0.012"
         style="fill:#060809;fill-opacity:1;fill-rule:nonzero;stroke:none"
         id="path36" />
      <path
         d="m 2730.06,407.922 -362.47,331.449 h -206.54 v 0 h 206.54 L 2730.06,407.93 v -0.008 M 407.223,1727.69 v 0.04 -0.04 m -0.024,0.87 c 0,0.04 0,0.05 0,0.09 0,-0.04 0,-0.05 0,-0.09 m -0.019,0.89 c 0,0.04 0,0.05 0,0.09 0,-0.03 0,-0.06 0,-0.09 m -0.02,0.88 c 0,0.04 0,0.07 -0.004,0.11 0,-0.04 0.004,-0.08 0.004,-0.11 m -0.019,0.9 c 0,0.01 0,0.07 0,0.09 0,-0.03 0,-0.06 0,-0.09 m -0.02,0.95 v 0.01 -0.01 m -0.051,2.69 c 0,0.02 0,0.08 -0.004,0.1 0.004,-0.03 0.004,-0.07 0.004,-0.1 m -0.015,0.86 c 0,0.06 0,0.14 -0.004,0.19 0.004,-0.03 0.004,-0.15 0.004,-0.19 m -0.012,0.87 c 0,0.06 -0.004,0.17 -0.004,0.22 0,-0.06 0.004,-0.15 0.004,-0.22 m -0.016,0.86 c 0,0.09 0,0.18 -0.004,0.27 0.004,-0.06 0.004,-0.2 0.004,-0.27 m -0.011,0.86 c 0,0.1 0,0.19 -0.004,0.29 0.004,-0.11 0.004,-0.18 0.004,-0.29 m -0.012,0.89 c 0,0.1 0,0.17 -0.004,0.27 0.004,-0.07 0.004,-0.2 0.004,-0.27 m -0.012,0.91 c 0,0.08 0,0.14 0,0.22 0,-0.07 0,-0.15 0,-0.22 m -0.008,0.92 c -0.004,0.07 -0.004,0.1 -0.004,0.17 0,-0.03 0.004,-0.14 0.004,-0.17 m -0.019,1.93 c 0,0.04 0,0.08 0,0.12 0,-0.03 0,-0.09 0,-0.12 m -0.008,0.86 c 0,0.1 0,0.17 -0.004,0.26 0.004,-0.07 0.004,-0.19 0.004,-0.26 m -0.008,0.85 c 0,0.12 0,0.22 0,0.33 0,-0.1 0,-0.22 0,-0.33 m -0.004,0.88 c 0,0.11 0,0.22 0,0.34 0,-0.11 0,-0.24 0,-0.34 m -0.004,0.85 c 0,0.11 0,0.26 -0.003,0.37 0.003,-0.14 0.003,-0.24 0.003,-0.37 m -0.003,0.87 c 0,0.13 0,0.23 -0.004,0.36 0.004,-0.1 0.004,-0.26 0.004,-0.36 m -0.004,0.87 c 0,0.11 0,0.24 0,0.36 0,-0.14 0,-0.23 0,-0.36 m -0.004,0.9 c 0,0.09 0,0.22 0,0.32 0,-0.11 0,-0.22 0,-0.32 m 0,0.9 c 0,0.09 0,0.19 0,0.29 0,-0.11 0,-0.19 0,-0.29 m 0,1.97 c 0,0.09 0,0.17 0,0.26 0,-0.1 0,-0.16 0,-0.26 m 0,0.83 c 0,0.1 0,0.19 0,0.3 0,-0.1 0,-0.2 0,-0.3 m 0.004,0.82 c 0,0.11 0,0.22 0,0.32 0,-0.1 0,-0.21 0,-0.32 m 0,0.83 c 0,0.1 0.004,0.21 0.004,0.31 0,-0.1 -0.004,-0.21 -0.004,-0.31 m 0.004,0.83 c 0,0.1 0,0.2 0.003,0.31 -0.003,-0.11 -0.003,-0.21 -0.003,-0.31 m 0.003,0.83 c 0,0.1 0,0.19 0.004,0.29 -0.004,-0.1 -0.004,-0.19 -0.004,-0.29 m 0.004,0.82 c 0.004,0.11 0.004,0.19 0.004,0.3 0,-0.07 -0.004,-0.23 -0.004,-0.3 m 0.008,0.83 c 0,0.09 0,0.18 0,0.27 0,-0.07 0,-0.2 0,-0.27 m 0.008,0.83 c 0,0.09 0,0.17 0,0.26 0,-0.07 0,-0.19 0,-0.26 m 0.004,0.83 c 0,0.09 0.004,0.15 0.004,0.24 0,-0.07 -0.004,-0.17 -0.004,-0.24 m 0.008,0.83 c 0,0.09 0.004,0.15 0.004,0.24 0,-0.07 -0.004,-0.17 -0.004,-0.24 m 0.007,0.83 c 0.004,0.06 0.004,0.15 0.004,0.22 0,-0.07 0,-0.16 -0.004,-0.22 m 0.012,0.83 c 0,0.07 0,0.14 0,0.21 0,-0.07 0,-0.15 0,-0.21 m 0.008,0.83 c 0.004,0.07 0.004,0.12 0.004,0.19 0,-0.07 0,-0.12 -0.004,-0.19 m 0.012,0.82 c 0,0.07 0,0.13 0.004,0.2 0,-0.04 -0.004,-0.16 -0.004,-0.2 m 0.011,0.84 c 0,0.06 0,0.1 0,0.15 0,-0.04 0,-0.11 0,-0.15 m 0.012,0.84 c 0,0.05 0,0.08 0,0.13 0,-0.03 0,-0.1 0,-0.13 m 0.012,0.82 c 0.004,0.06 0.004,0.08 0.004,0.13 0,-0.03 0,-0.09 -0.004,-0.13 m 0.016,0.83 c 0,0.05 0,0.08 0,0.13 0,-0.03 0,-0.09 0,-0.13 m 0.011,0.85 c 0.004,0.03 0.004,0.04 0.004,0.07 0,-0.03 0,-0.04 -0.004,-0.07 m 0.02,0.83 c 0,0.02 0,0.04 0,0.06 v -0.06 m 0.015,0.83 c 0,0.02 0,0.04 0,0.05 v -0.05 m 0.016,0.83 c 0,0.02 0,0.03 0,0.05 v -0.05"
         style="fill:#170a0c;fill-opacity:1;fill-rule:nonzero;stroke:none"
         id="path38" />
      <path
         d="m 2730.06,407.93 -362.47,331.441 h -206.54 l -150.58,175.481 h -815.61 c -0.3,0 -0.56,0 -0.86,0 -0.13,0 -0.23,0 -0.35,0 -0.15,0 -0.36,0 -0.51,0 -0.14,0 -0.28,0 -0.42,0 -0.15,0 -0.3,0 -0.45,0 -0.14,0 -0.28,0 -0.42,0.007 -0.15,0 -0.29,0 -0.44,0 -0.15,0 -0.3,0 -0.45,0 -0.15,0 -0.25,0 -0.41,0 -0.16,0 -0.31,0 -0.48,0 -0.11,0 -0.24,0 -0.35,0 -0.18,0 -0.36,0 -0.53,0 -0.12,0 -0.18,0.012 -0.29,0.012 -0.19,0 -0.4,0 -0.59,0 -0.07,0 -0.14,0 -0.22,0 -0.22,0 -0.44,0 -0.67,0 h -0.03 c -138.56,0.828 -269.117,24.5 -388.292,66.981 C 565.191,1162.7 414.715,1429.2 407.223,1727.69 v 0.04 c -0.008,0.28 -0.016,0.55 -0.024,0.83 0,0.04 0,0.05 0,0.09 -0.008,0.26 -0.011,0.54 -0.019,0.8 0,0.03 0,0.06 0,0.09 -0.008,0.26 -0.016,0.53 -0.02,0.79 0,0.03 -0.004,0.07 -0.004,0.11 -0.004,0.26 -0.011,0.52 -0.015,0.79 0,0.03 0,0.06 0,0.09 -0.008,0.3 -0.012,0.56 -0.02,0.86 v 0.01 c -0.019,0.9 -0.035,1.78 -0.051,2.68 0,0.03 0,0.07 -0.004,0.1 -0.003,0.26 -0.007,0.5 -0.011,0.76 0,0.04 0,0.16 -0.004,0.19 -0.004,0.25 -0.004,0.44 -0.008,0.68 0,0.07 -0.004,0.16 -0.004,0.22 -0.004,0.23 -0.008,0.42 -0.012,0.64 0,0.07 0,0.21 -0.004,0.27 0,0.19 -0.003,0.41 -0.007,0.59 0,0.11 0,0.18 -0.004,0.29 0,0.2 -0.004,0.4 -0.008,0.6 0,0.07 0,0.2 -0.004,0.27 0,0.2 -0.004,0.43 -0.008,0.64 0,0.07 0,0.15 0,0.22 -0.004,0.22 -0.008,0.47 -0.008,0.7 0,0.03 -0.004,0.14 -0.004,0.17 -0.003,0.59 -0.011,1.18 -0.015,1.76 0,0.03 0,0.09 0,0.12 -0.004,0.24 -0.004,0.5 -0.008,0.74 0,0.07 0,0.19 -0.004,0.26 0,0.19 0,0.41 -0.004,0.59 0,0.11 0,0.23 0,0.33 0,0.19 -0.004,0.36 -0.004,0.55 0,0.1 0,0.23 0,0.34 -0.004,0.16 -0.004,0.34 -0.004,0.51 0,0.13 0,0.23 -0.003,0.37 0,0.17 0,0.33 0,0.5 0,0.1 0,0.26 -0.004,0.36 0,0.17 0,0.34 0,0.51 0,0.13 0,0.22 0,0.36 0,0.18 0,0.35 -0.004,0.54 0,0.1 0,0.21 0,0.32 0,0.2 0,0.37 0,0.58 0,0.1 0,0.18 0,0.29 0,0.28 0,0.57 0,0.86 v 0 c 0,0.27 0,0.54 0,0.82 0,0.1 0,0.16 0,0.26 0,0.19 0,0.38 0,0.57 0,0.1 0,0.2 0,0.3 0,0.17 0.004,0.35 0.004,0.52 0,0.11 0,0.22 0,0.32 0,0.18 0,0.34 0,0.51 0,0.1 0.004,0.21 0.004,0.31 0,0.16 0,0.36 0,0.52 0,0.1 0,0.2 0.003,0.31 0,0.17 0,0.34 0,0.52 0,0.1 0,0.19 0.004,0.29 0,0.17 0,0.36 0,0.53 0,0.07 0.004,0.23 0.004,0.3 0,0.17 0,0.36 0.004,0.53 0,0.07 0,0.2 0,0.27 0.004,0.19 0.004,0.37 0.008,0.56 0,0.07 0,0.19 0,0.26 0,0.19 0.004,0.38 0.004,0.57 0,0.07 0.004,0.17 0.004,0.24 0,0.19 0.004,0.4 0.004,0.59 0,0.07 0.004,0.17 0.004,0.24 0,0.19 0.003,0.4 0.003,0.59 0.004,0.06 0.004,0.15 0.004,0.22 0.004,0.21 0.004,0.4 0.008,0.61 0,0.06 0,0.14 0,0.21 0.004,0.2 0.004,0.41 0.008,0.62 0.004,0.07 0.004,0.12 0.004,0.19 0.004,0.2 0.004,0.43 0.008,0.63 0,0.04 0.004,0.16 0.004,0.2 0,0.2 0.004,0.44 0.007,0.64 0,0.04 0,0.11 0,0.15 0.004,0.22 0.008,0.46 0.012,0.69 0,0.03 0,0.1 0,0.13 0.008,0.23 0.012,0.47 0.012,0.69 0.004,0.04 0.004,0.1 0.004,0.13 0.004,0.23 0.008,0.48 0.012,0.7 0,0.04 0,0.1 0,0.13 0.003,0.22 0.007,0.49 0.011,0.72 0.004,0.03 0.004,0.04 0.004,0.07 0.004,0.26 0.008,0.51 0.016,0.76 v 0.06 c 0.004,0.26 0.008,0.51 0.015,0.77 v 0.05 c 0.004,0.26 0.008,0.52 0.016,0.78 v 0.05 c 5.68,276.51 134.086,525.88 337.969,705.5 114.59,36.72 237.726,57.09 366.026,57.88 h 0.05 c 0.23,0 0.46,0 0.7,0 0.03,0 0.09,0 0.13,0 0.89,0.01 1.78,0.01 2.66,0.02 0.16,0 0.26,0 0.41,0 0.13,0 0.27,0 0.4,0 0.15,0 0.3,0 0.45,0 0.13,0 0.25,0 0.38,0 0.15,0 0.34,0 0.49,0 0.12,0 0.24,0 0.35,0 0.19,0 0.35,0 0.54,0 0.1,0 0.2,0 0.3,0 0.27,0 0.57,0 0.84,0 v 0 h 1607.41 c 617.91,0 1118.81,-452.94 1118.81,-1011.69 0,-0.21 0,-0.45 0,-0.65 -0.01,-21.45 -0.86,-42.72 -2.33,-63.83 -166.21,-307.87 -494.98,-522.339 -899.23,-541.159 -0.04,0 -0.02,0 -0.06,-0.012 -0.59,-0.019 -1.13,-0.051 -1.72,-0.07 -0.07,-0.008 -0.12,-0.008 -0.2,-0.008 -0.54,-0.031 -1.04,-0.051 -1.59,-0.07 -0.11,-0.012 -0.15,-0.012 -0.26,-0.02 -0.16,0 -0.3,-0.012 -0.46,-0.019 -0.11,0 -0.25,-0.012 -0.36,-0.012 -0.21,-0.008 -0.44,-0.02 -0.65,-0.031 -0.11,0 -0.27,-0.008 -0.38,-0.008 -0.13,-0.012 -0.29,-0.02 -0.41,-0.02 -0.12,-0.011 -0.28,-0.011 -0.39,-0.019 -0.15,0 -0.26,-0.012 -0.42,-0.024 -0.22,0 -0.39,-0.008 -0.61,-0.019 -0.11,0 -0.26,-0.008 -0.37,-0.008 -0.15,-0.012 -0.29,-0.02 -0.44,-0.02 -0.1,-0.011 -0.22,-0.011 -0.33,-0.019 -0.22,0 -0.48,-0.012 -0.71,-0.024 -0.07,-0.007 -0.19,-0.007 -0.27,-0.007 -0.15,-0.012 -0.37,-0.02 -0.52,-0.02 -0.11,-0.012 -0.18,-0.012 -0.29,-0.019 -0.22,0 -0.48,-0.012 -0.7,-0.024 -0.08,0 -0.16,-0.008 -0.24,-0.008 -0.22,-0.011 -0.38,-0.011 -0.6,-0.019 -0.11,-0.012 -0.15,-0.012 -0.25,-0.012 -0.22,-0.008 -0.44,-0.019 -0.67,-0.027 -0.05,0 -0.07,0 -0.12,0 -0.26,-0.012 -0.54,-0.024 -0.8,-0.032 -0.05,0 -0.12,0 -0.17,-0.011 -0.22,0 -0.47,-0.008 -0.69,-0.02 -0.05,0 -0.09,0 -0.14,0 -0.3,-0.008 -0.52,-0.019 -0.81,-0.027 -0.05,0 -0.08,0 -0.13,-0.012 -0.23,0 -0.48,-0.012 -0.71,-0.019 -0.05,0 -0.1,0 -0.15,-0.012 -0.27,0 -0.56,-0.008 -0.83,-0.02 -0.02,0 -0.03,0 -0.06,0 -0.26,-0.007 -0.49,-0.019 -0.75,-0.027 -0.05,0 -0.12,0 -0.17,0 -0.52,-0.023 -1.13,-0.043 -1.65,-0.062 -0.02,0 -0.11,0 -0.14,0 -0.55,-0.02 -1.12,-0.032 -1.68,-0.051 -0.03,0 -0.04,0 -0.07,0 -0.3,-0.008 -0.53,-0.02 -0.82,-0.02 l -0.04,-0.008 c -0.6,-0.011 -1.15,-0.031 -1.74,-0.043 -0.03,0 -0.04,0 -0.07,-0.007 -0.6,-0.012 -1.13,-0.02 -1.72,-0.039 -0.03,0 -0.05,0 -0.08,0 -0.6,-0.024 -1.13,-0.032 -1.73,-0.043 l -0.05,-0.008 c -0.9,-0.02 -1.75,-0.039 -2.65,-0.063 h -0.02 c -0.59,-0.008 -1.16,-0.019 -1.76,-0.027 h -0.04 c -2.69,-0.063 -5.35,-0.102 -8.05,-0.141 -0.03,0 0,0 -0.03,0 -0.6,-0.011 -1.17,-0.019 -1.77,-0.019 -0.02,-0.012 -0.01,0 -0.04,-0.012 -0.3,0 -0.57,0 -0.87,-0.008 v 0 c -0.6,0 -1.18,-0.011 -1.78,-0.019 h -0.04 c -0.6,0 -1.13,-0.012 -1.73,-0.012 -0.05,0 -0.06,0 -0.11,0 -0.6,-0.012 -1.1,-0.012 -1.7,-0.02 -0.03,0 -0.08,0 -0.1,0 -0.26,0 -0.56,0 -0.82,0 -0.03,0 -0.01,0 -0.04,0 -0.3,-0.011 -0.55,-0.011 -0.85,-0.011 -0.02,0 -0.1,0 -0.12,0 -0.23,0 -0.5,0 -0.73,0 -0.05,0 -0.09,0 -0.14,0 -0.3,-0.008 -0.53,-0.008 -0.83,-0.008 -0.03,0 -0.06,0 -0.09,0 -0.22,0 -0.5,0 -0.72,0 -0.08,0 -0.13,0 -0.21,0 -0.26,0 -0.54,0 -0.81,-0.012 v -393.89 c -51.51,-6.797 -104.14,-10.5 -157.69,-10.719 -0.12,-0.008 -0.23,-0.008 -0.34,-0.008 -0.12,0 -0.24,0 -0.36,0 -0.26,0 -0.49,0 -0.76,0 V 407.93"
         style="fill:#040606;fill-opacity:1;fill-rule:nonzero;stroke:none"
         id="path40" />
      <path
         d="m 1206.87,1920.39 c -45.59,46.29 -108.96,75.04 -179.07,75.04 -138.777,0 -251.261,-112.51 -251.261,-251.3 v -339.08 h 144.422 v 339.08 c 0,59.03 47.828,106.85 106.839,106.85 59.01,0 106.83,-47.82 106.83,-106.85 v -339.08 h 144.43 v 339.08 c 0,59.03 47.85,106.85 106.83,106.85 59.04,0 106.86,-47.82 106.86,-106.85 v -339.08 h 144.44 v 339.08 c 0,138.79 -112.49,251.3 -251.3,251.3 -70.05,0 -133.45,-28.75 -179.02,-75.04"
         style="fill:#ffffff;fill-opacity:1;fill-rule:nonzero;stroke:none"
         id="path42" />
      <path
         d="m 1836.49,1741 c 12.84,73.79 56.68,121.94 124.06,121.94 68.43,0 111.24,-49.19 120.87,-121.94 z m 395.61,21.7 c -14.05,118.75 -99.58,230.7 -271.55,230.7 -166.85,0 -283.42,-134.76 -283.42,-298.39 v -2.14 c 0,-175.39 127.27,-296.25 299.47,-296.25 103.73,0 180.74,40.65 234.2,106.98 l -93.01,82.32 c -44.96,-41.73 -84.51,-58.82 -139.05,-58.82 -72.76,0 -124.06,38.51 -140.12,112.3 h 287.33 c 92.1,0 116.93,54.28 106.15,123.3"
         style="fill:#ffffff;fill-opacity:1;fill-rule:nonzero;stroke:none"
         id="path44" />
      <path
         d="m 2424.63,1741 c 12.84,73.79 56.68,121.94 124.09,121.94 68.43,0 111.22,-49.19 120.84,-121.94 z m 395.62,21.7 c -14.07,118.75 -99.58,230.7 -271.53,230.7 -166.87,0 -283.41,-134.76 -283.41,-298.39 v -2.14 c 0,-175.39 127.24,-296.25 299.44,-296.25 103.74,0 180.74,40.65 234.22,106.98 l -93.06,82.32 c -44.92,-41.73 -84.49,-58.82 -139.04,-58.82 -72.72,0 -124.04,38.51 -140.1,112.3 h 287.31 c 92.11,0 116.98,54.28 106.17,123.3"
         style="fill:#ffffff;fill-opacity:1;fill-rule:nonzero;stroke:none"
         id="path46" />
      <path
         d="m 3012.79,1741 c 12.83,73.79 56.71,121.94 124.07,121.94 68.46,0 111.24,-49.19 120.82,-121.94 z m 395.6,21.7 c -14.04,118.75 -99.56,230.7 -271.53,230.7 -166.83,0 -283.43,-134.76 -283.43,-298.39 v -2.14 c 0,-175.39 127.28,-296.25 299.49,-296.25 103.7,0 180.7,40.65 234.19,106.98 l -93.01,82.32 c -44.96,-41.73 -84.53,-58.82 -139.07,-58.82 -72.73,0 -124.07,38.51 -140.12,112.3 h 287.33 c 92.13,0 116.95,54.28 106.15,123.3"
         style="fill:#ffffff;fill-opacity:1;fill-rule:nonzero;stroke:none"
         id="path48" />
    </g>
  </g>
</svg>
